<mxfile host="app.diagrams.net" agent="Mozilla/5.0 (Macintosh; Intel Mac OS X 10_15_7) AppleWebKit/605.1.15 (KHTML, like Gecko) Version/17.6 Safari/605.1.15" version="24.7.12" pages="3">
  <diagram id="Ht1M8jgEwFfnCIfOTk4-" name="Page-1">
    <mxGraphModel dx="1673" dy="896" grid="1" gridSize="10" guides="1" tooltips="1" connect="1" arrows="1" fold="1" page="1" pageScale="1" pageWidth="827" pageHeight="1169" math="0" shadow="0">
      <root>
        <mxCell id="0" />
        <mxCell id="1" parent="0" />
        <mxCell id="UEzPUAAOIrF-is8g5C7q-2" value="AWS Cloud" style="points=[[0,0],[0.25,0],[0.5,0],[0.75,0],[1,0],[1,0.25],[1,0.5],[1,0.75],[1,1],[0.75,1],[0.5,1],[0.25,1],[0,1],[0,0.75],[0,0.5],[0,0.25]];outlineConnect=0;gradientColor=none;html=1;whiteSpace=wrap;fontSize=12;fontStyle=0;shape=mxgraph.aws4.group;grIcon=mxgraph.aws4.group_aws_cloud_alt;strokeColor=#232F3E;fillColor=none;verticalAlign=top;align=left;spacingLeft=30;fontColor=#232F3E;dashed=0;container=1;pointerEvents=0;collapsible=0;recursiveResize=0;" parent="1" vertex="1">
          <mxGeometry x="435.5" y="175" width="630" height="486" as="geometry" />
        </mxCell>
        <mxCell id="UEzPUAAOIrF-is8g5C7q-1" value="Corporate data center" style="points=[[0,0],[0.25,0],[0.5,0],[0.75,0],[1,0],[1,0.25],[1,0.5],[1,0.75],[1,1],[0.75,1],[0.5,1],[0.25,1],[0,1],[0,0.75],[0,0.5],[0,0.25]];outlineConnect=0;gradientColor=none;html=1;whiteSpace=wrap;fontSize=12;fontStyle=0;shape=mxgraph.aws4.group;grIcon=mxgraph.aws4.group_corporate_data_center;strokeColor=#5A6C86;fillColor=none;verticalAlign=top;align=left;spacingLeft=30;fontColor=#5A6C86;dashed=0;container=1;pointerEvents=0;collapsible=0;recursiveResize=0;" parent="1" vertex="1">
          <mxGeometry x="11.5" y="175" width="404" height="486" as="geometry" />
        </mxCell>
        <mxCell id="UEzPUAAOIrF-is8g5C7q-5" value="" style="whiteSpace=wrap;html=1;dashed=0;fontColor=#AAB7B8;fontStyle=0;align=left;verticalAlign=top;strokeColor=#248814;fillColor=none;gradientColor=none;spacingLeft=30;container=1;pointerEvents=0;collapsible=0;recursiveResize=0;" parent="1" vertex="1">
          <mxGeometry x="175.5" y="281" width="210" height="300" as="geometry" />
        </mxCell>
        <mxCell id="UEzPUAAOIrF-is8g5C7q-25" value="" style="edgeStyle=orthogonalEdgeStyle;rounded=0;orthogonalLoop=1;jettySize=auto;html=1;strokeColor=#545B64;strokeWidth=2;endFill=0;endArrow=open;startArrow=none;" parent="1" source="UEzPUAAOIrF-is8g5C7q-6" target="UEzPUAAOIrF-is8g5C7q-8" edge="1">
          <mxGeometry relative="1" as="geometry" />
        </mxCell>
        <mxCell id="UEzPUAAOIrF-is8g5C7q-26" value="" style="edgeStyle=orthogonalEdgeStyle;rounded=0;orthogonalLoop=1;jettySize=auto;html=1;strokeColor=#545B64;strokeWidth=2;endFill=0;endArrow=open;startArrow=none;" parent="1" source="UEzPUAAOIrF-is8g5C7q-7" target="UEzPUAAOIrF-is8g5C7q-9" edge="1">
          <mxGeometry relative="1" as="geometry" />
        </mxCell>
        <mxCell id="UEzPUAAOIrF-is8g5C7q-29" style="edgeStyle=orthogonalEdgeStyle;rounded=0;orthogonalLoop=1;jettySize=auto;html=1;strokeColor=#545B64;strokeWidth=2;endFill=0;endArrow=open;startArrow=none;" parent="1" source="UEzPUAAOIrF-is8g5C7q-11" target="UEzPUAAOIrF-is8g5C7q-13" edge="1">
          <mxGeometry relative="1" as="geometry" />
        </mxCell>
        <mxCell id="UEzPUAAOIrF-is8g5C7q-30" style="edgeStyle=orthogonalEdgeStyle;rounded=0;orthogonalLoop=1;jettySize=auto;html=1;strokeColor=#545B64;strokeWidth=2;endFill=0;endArrow=open;startArrow=none;" parent="1" source="UEzPUAAOIrF-is8g5C7q-12" target="UEzPUAAOIrF-is8g5C7q-13" edge="1">
          <mxGeometry relative="1" as="geometry">
            <Array as="points">
              <mxPoint x="615.5" y="496" />
              <mxPoint x="615.5" y="360" />
            </Array>
          </mxGeometry>
        </mxCell>
        <mxCell id="UEzPUAAOIrF-is8g5C7q-31" style="edgeStyle=orthogonalEdgeStyle;rounded=0;orthogonalLoop=1;jettySize=auto;html=1;strokeColor=#545B64;strokeWidth=2;endFill=0;endArrow=open;startArrow=none;" parent="1" source="UEzPUAAOIrF-is8g5C7q-13" target="UEzPUAAOIrF-is8g5C7q-14" edge="1">
          <mxGeometry relative="1" as="geometry" />
        </mxCell>
        <mxCell id="UEzPUAAOIrF-is8g5C7q-32" style="edgeStyle=orthogonalEdgeStyle;rounded=0;orthogonalLoop=1;jettySize=auto;html=1;strokeColor=#545B64;strokeWidth=2;endFill=0;endArrow=open;startArrow=none;" parent="1" source="UEzPUAAOIrF-is8g5C7q-13" target="UEzPUAAOIrF-is8g5C7q-16" edge="1">
          <mxGeometry relative="1" as="geometry" />
        </mxCell>
        <mxCell id="UEzPUAAOIrF-is8g5C7q-33" style="edgeStyle=orthogonalEdgeStyle;rounded=0;orthogonalLoop=1;jettySize=auto;html=1;strokeColor=#545B64;strokeWidth=2;endFill=0;endArrow=open;startArrow=none;" parent="1" source="UEzPUAAOIrF-is8g5C7q-15" target="UEzPUAAOIrF-is8g5C7q-13" edge="1">
          <mxGeometry relative="1" as="geometry" />
        </mxCell>
        <mxCell id="UEzPUAAOIrF-is8g5C7q-34" style="edgeStyle=orthogonalEdgeStyle;rounded=0;orthogonalLoop=1;jettySize=auto;html=1;strokeColor=#545B64;strokeWidth=2;endFill=0;endArrow=open;startArrow=none;" parent="1" source="UEzPUAAOIrF-is8g5C7q-15" target="UEzPUAAOIrF-is8g5C7q-18" edge="1">
          <mxGeometry relative="1" as="geometry" />
        </mxCell>
        <mxCell id="UEzPUAAOIrF-is8g5C7q-35" style="edgeStyle=orthogonalEdgeStyle;rounded=0;orthogonalLoop=1;jettySize=auto;html=1;strokeColor=#545B64;strokeWidth=2;endFill=0;endArrow=open;startArrow=none;" parent="1" source="UEzPUAAOIrF-is8g5C7q-15" target="UEzPUAAOIrF-is8g5C7q-17" edge="1">
          <mxGeometry relative="1" as="geometry" />
        </mxCell>
        <mxCell id="UEzPUAAOIrF-is8g5C7q-27" value="" style="edgeStyle=orthogonalEdgeStyle;rounded=0;orthogonalLoop=1;jettySize=auto;html=1;strokeColor=#545B64;strokeWidth=2;endFill=0;endArrow=open;startArrow=none;" parent="1" source="UEzPUAAOIrF-is8g5C7q-9" target="UEzPUAAOIrF-is8g5C7q-12" edge="1">
          <mxGeometry relative="1" as="geometry">
            <mxPoint x="126.41011523687575" y="546.0689655172414" as="sourcePoint" />
            <mxPoint x="273.5" y="539.8620689655172" as="targetPoint" />
          </mxGeometry>
        </mxCell>
        <mxCell id="UEzPUAAOIrF-is8g5C7q-28" value="" style="edgeStyle=orthogonalEdgeStyle;rounded=0;orthogonalLoop=1;jettySize=auto;html=1;strokeColor=#545B64;strokeWidth=2;endFill=0;endArrow=open;startArrow=none;" parent="1" source="UEzPUAAOIrF-is8g5C7q-8" target="UEzPUAAOIrF-is8g5C7q-11" edge="1">
          <mxGeometry relative="1" as="geometry">
            <mxPoint x="136.41011523687575" y="556.0689655172414" as="sourcePoint" />
            <mxPoint x="283.5" y="549.8620689655172" as="targetPoint" />
          </mxGeometry>
        </mxCell>
        <mxCell id="-QjtrjUzRDEMRZ5MF8oH-9" value="1" style="rounded=1;whiteSpace=wrap;html=1;fillColor=#007CBD;strokeColor=none;fontColor=#FFFFFF;fontStyle=1;fontSize=22;" parent="1" vertex="1">
          <mxGeometry x="122" y="244" width="40" height="38" as="geometry" />
        </mxCell>
        <mxCell id="-QjtrjUzRDEMRZ5MF8oH-47" value="Title text" style="text;html=1;resizable=0;points=[];autosize=1;align=left;verticalAlign=top;spacingTop=-4;fontSize=30;fontStyle=1" parent="1" vertex="1">
          <mxGeometry x="12" y="65.5" width="130" height="40" as="geometry" />
        </mxCell>
        <mxCell id="-QjtrjUzRDEMRZ5MF8oH-48" value="Subtitle text&lt;br style=&quot;font-size: 16px&quot;&gt;" style="text;html=1;resizable=0;points=[];autosize=1;align=left;verticalAlign=top;spacingTop=-4;fontSize=16" parent="1" vertex="1">
          <mxGeometry x="12" y="115.5" width="100" height="20" as="geometry" />
        </mxCell>
        <mxCell id="SCVMTBWpLvtzJIhz15lM-1" value="" style="line;strokeWidth=2;html=1;fontSize=14;" parent="1" vertex="1">
          <mxGeometry x="8" y="140.5" width="1060" height="10" as="geometry" />
        </mxCell>
        <mxCell id="7OVz4w7n9kzEPWy-4BBC-3" value="" style="rounded=0;whiteSpace=wrap;html=1;fillColor=#EAEDED;fontSize=22;fontColor=#FFFFFF;strokeColor=none;labelBackgroundColor=none;" parent="1" vertex="1">
          <mxGeometry x="1106.5" y="52" width="539" height="969" as="geometry" />
        </mxCell>
        <mxCell id="7OVz4w7n9kzEPWy-4BBC-4" value="1" style="rounded=1;whiteSpace=wrap;html=1;fillColor=#007CBD;strokeColor=none;fontColor=#FFFFFF;fontStyle=1;fontSize=22;labelBackgroundColor=none;" parent="1" vertex="1">
          <mxGeometry x="1124.5" y="64" width="40" height="38" as="geometry" />
        </mxCell>
        <mxCell id="7OVz4w7n9kzEPWy-4BBC-5" value="2" style="rounded=1;whiteSpace=wrap;html=1;fillColor=#007CBD;strokeColor=none;fontColor=#FFFFFF;fontStyle=1;fontSize=22;labelBackgroundColor=none;" parent="1" vertex="1">
          <mxGeometry x="1123" y="186" width="40" height="38" as="geometry" />
        </mxCell>
        <mxCell id="7OVz4w7n9kzEPWy-4BBC-6" value="3" style="rounded=1;whiteSpace=wrap;html=1;fillColor=#007CBD;strokeColor=none;fontColor=#FFFFFF;fontStyle=1;fontSize=22;labelBackgroundColor=none;" parent="1" vertex="1">
          <mxGeometry x="1123" y="306" width="40" height="38" as="geometry" />
        </mxCell>
        <mxCell id="7OVz4w7n9kzEPWy-4BBC-7" value="4" style="rounded=1;whiteSpace=wrap;html=1;fillColor=#007CBD;strokeColor=none;fontColor=#FFFFFF;fontStyle=1;fontSize=22;labelBackgroundColor=none;" parent="1" vertex="1">
          <mxGeometry x="1123" y="420" width="40" height="38" as="geometry" />
        </mxCell>
        <mxCell id="7OVz4w7n9kzEPWy-4BBC-8" value="5" style="rounded=1;whiteSpace=wrap;html=1;fillColor=#007CBD;strokeColor=none;fontColor=#FFFFFF;fontStyle=1;fontSize=22;labelBackgroundColor=none;" parent="1" vertex="1">
          <mxGeometry x="1124.5" y="537" width="40" height="38" as="geometry" />
        </mxCell>
        <mxCell id="7OVz4w7n9kzEPWy-4BBC-9" value="6" style="rounded=1;whiteSpace=wrap;html=1;fillColor=#007CBD;strokeColor=none;fontColor=#FFFFFF;fontStyle=1;fontSize=22;labelBackgroundColor=none;" parent="1" vertex="1">
          <mxGeometry x="1125.5" y="652" width="40" height="38" as="geometry" />
        </mxCell>
        <mxCell id="7OVz4w7n9kzEPWy-4BBC-10" value="7" style="rounded=1;whiteSpace=wrap;html=1;fillColor=#007CBD;strokeColor=none;fontColor=#FFFFFF;fontStyle=1;fontSize=22;labelBackgroundColor=none;" parent="1" vertex="1">
          <mxGeometry x="1125" y="768" width="40" height="38" as="geometry" />
        </mxCell>
        <mxCell id="7OVz4w7n9kzEPWy-4BBC-11" value="8" style="rounded=1;whiteSpace=wrap;html=1;fillColor=#007CBD;strokeColor=none;fontColor=#FFFFFF;fontStyle=1;fontSize=22;labelBackgroundColor=none;" parent="1" vertex="1">
          <mxGeometry x="1125.5" y="886" width="40" height="38" as="geometry" />
        </mxCell>
        <mxCell id="7OVz4w7n9kzEPWy-4BBC-13" value="&lt;span&gt;Lorem ipsum dolor sit amet, consectetur adipiscing elit, sed do eiusmod tempor incididunt ut labore et dolore magna aliqua. Ut enim ad minim veniam, quis nostrud exercitation ullamco laboris nisi ut aliquip ex ea commodo consequat. Duis aute irure dolor in reprehenderit in voluptate velit esse cillum dolore eu fugiat nulla pariatur. Excepteur sint occaecat cupidatat non proident, sunt in culpa qui officia deserunt mollit anim id est laborum.&lt;/span&gt;&lt;br&gt;" style="text;html=1;align=left;verticalAlign=top;spacingTop=-4;fontSize=14;labelBackgroundColor=none;whiteSpace=wrap;" parent="1" vertex="1">
          <mxGeometry x="1176" y="63.5" width="449" height="118" as="geometry" />
        </mxCell>
        <mxCell id="7OVz4w7n9kzEPWy-4BBC-14" value="&lt;span&gt;Lorem ipsum dolor sit amet, consectetur adipiscing elit, sed do eiusmod tempor incididunt ut labore et dolore magna aliqua. Ut enim ad minim veniam, quis nostrud exercitation ullamco laboris nisi ut aliquip ex ea commodo consequat. Duis aute irure dolor in reprehenderit in voluptate velit esse cillum dolore eu fugiat nulla pariatur. Excepteur sint occaecat cupidatat non proident, sunt in culpa qui officia deserunt mollit anim id est laborum.&lt;/span&gt;&lt;br&gt;" style="text;html=1;align=left;verticalAlign=top;spacingTop=-4;fontSize=14;labelBackgroundColor=none;whiteSpace=wrap;" parent="1" vertex="1">
          <mxGeometry x="1175" y="186.5" width="450" height="115" as="geometry" />
        </mxCell>
        <mxCell id="7OVz4w7n9kzEPWy-4BBC-15" value="&lt;span&gt;Lorem ipsum dolor sit amet, consectetur adipiscing elit, sed do eiusmod tempor incididunt ut labore et dolore magna aliqua. Ut enim ad minim veniam, quis nostrud exercitation ullamco laboris nisi ut aliquip ex ea commodo consequat. Duis aute irure dolor in reprehenderit in voluptate velit esse cillum dolore eu fugiat nulla pariatur. Excepteur sint occaecat cupidatat non proident, sunt in culpa qui officia deserunt mollit anim id est laborum.&lt;/span&gt;&lt;br&gt;" style="text;html=1;align=left;verticalAlign=top;spacingTop=-4;fontSize=14;labelBackgroundColor=none;whiteSpace=wrap;" parent="1" vertex="1">
          <mxGeometry x="1175" y="304.5" width="450" height="117" as="geometry" />
        </mxCell>
        <mxCell id="7OVz4w7n9kzEPWy-4BBC-16" value="&lt;span&gt;Lorem ipsum dolor sit amet, consectetur adipiscing elit, sed do eiusmod tempor incididunt ut labore et dolore magna aliqua. Ut enim ad minim veniam, quis nostrud exercitation ullamco laboris nisi ut aliquip ex ea commodo consequat. Duis aute irure dolor in reprehenderit in voluptate velit esse cillum dolore eu fugiat nulla pariatur. Excepteur sint occaecat cupidatat non proident, sunt in culpa qui officia deserunt mollit anim id est laborum.&lt;/span&gt;&lt;br&gt;" style="text;html=1;align=left;verticalAlign=top;spacingTop=-4;fontSize=14;labelBackgroundColor=none;whiteSpace=wrap;" parent="1" vertex="1">
          <mxGeometry x="1175" y="420.5" width="450" height="121" as="geometry" />
        </mxCell>
        <mxCell id="7OVz4w7n9kzEPWy-4BBC-17" value="&lt;span&gt;Lorem ipsum dolor sit amet, consectetur adipiscing elit, sed do eiusmod tempor incididunt ut labore et dolore magna aliqua. Ut enim ad minim veniam, quis nostrud exercitation ullamco laboris nisi ut aliquip ex ea commodo consequat. Duis aute irure dolor in reprehenderit in voluptate velit esse cillum dolore eu fugiat nulla pariatur. Excepteur sint occaecat cupidatat non proident, sunt in culpa qui officia deserunt mollit anim id est laborum.&lt;/span&gt;&lt;br&gt;" style="text;html=1;align=left;verticalAlign=top;spacingTop=-4;fontSize=14;labelBackgroundColor=none;whiteSpace=wrap;" parent="1" vertex="1">
          <mxGeometry x="1176" y="537.5" width="449" height="114" as="geometry" />
        </mxCell>
        <mxCell id="7OVz4w7n9kzEPWy-4BBC-18" value="&lt;span&gt;Lorem ipsum dolor sit amet, consectetur adipiscing elit, sed do eiusmod tempor incididunt ut labore et dolore magna aliqua. Ut enim ad minim veniam, quis nostrud exercitation ullamco laboris nisi ut aliquip ex ea commodo consequat. Duis aute irure dolor in reprehenderit in voluptate velit esse cillum dolore eu fugiat nulla pariatur. Excepteur sint occaecat cupidatat non proident, sunt in culpa qui officia deserunt mollit anim id est laborum.&lt;/span&gt;&lt;br&gt;" style="text;html=1;align=left;verticalAlign=top;spacingTop=-4;fontSize=14;labelBackgroundColor=none;whiteSpace=wrap;" parent="1" vertex="1">
          <mxGeometry x="1176" y="653.5" width="450" height="118" as="geometry" />
        </mxCell>
        <mxCell id="7OVz4w7n9kzEPWy-4BBC-19" value="&lt;span&gt;Lorem ipsum dolor sit amet, consectetur adipiscing elit, sed do eiusmod tempor incididunt ut labore et dolore magna aliqua. Ut enim ad minim veniam, quis nostrud exercitation ullamco laboris nisi ut aliquip ex ea commodo consequat. Duis aute irure dolor in reprehenderit in voluptate velit esse cillum dolore eu fugiat nulla pariatur. Excepteur sint occaecat cupidatat non proident, sunt in culpa qui officia deserunt mollit anim id est laborum.&lt;/span&gt;&lt;br&gt;" style="text;html=1;align=left;verticalAlign=top;spacingTop=-4;fontSize=14;labelBackgroundColor=none;whiteSpace=wrap;" parent="1" vertex="1">
          <mxGeometry x="1176" y="768.5" width="449" height="113" as="geometry" />
        </mxCell>
        <mxCell id="7OVz4w7n9kzEPWy-4BBC-20" value="&lt;span&gt;Lorem ipsum dolor sit amet, consectetur adipiscing elit, sed do eiusmod tempor incididunt ut labore et dolore magna aliqua. Ut enim ad minim veniam, quis nostrud exercitation ullamco laboris nisi ut aliquip ex ea commodo consequat. Duis aute irure dolor in reprehenderit in voluptate velit esse cillum dolore eu fugiat nulla pariatur. Excepteur sint occaecat cupidatat non proident, sunt in culpa qui officia deserunt mollit anim id est laborum.&lt;/span&gt;&lt;br&gt;" style="text;html=1;align=left;verticalAlign=top;spacingTop=-4;fontSize=14;labelBackgroundColor=none;whiteSpace=wrap;" parent="1" vertex="1">
          <mxGeometry x="1176" y="887.5" width="449" height="124" as="geometry" />
        </mxCell>
        <mxCell id="UEzPUAAOIrF-is8g5C7q-6" value="Factory" style="outlineConnect=0;fontColor=#232F3E;gradientColor=none;fillColor=#277116;strokeColor=none;dashed=0;verticalLabelPosition=bottom;verticalAlign=top;align=center;html=1;fontSize=12;fontStyle=0;aspect=fixed;pointerEvents=1;shape=mxgraph.aws4.factory;" parent="1" vertex="1">
          <mxGeometry x="38.500000000000156" y="320.99999999999994" width="78" height="78" as="geometry" />
        </mxCell>
        <mxCell id="UEzPUAAOIrF-is8g5C7q-7" value="Factory&lt;br&gt;" style="outlineConnect=0;fontColor=#232F3E;gradientColor=none;fillColor=#277116;strokeColor=none;dashed=0;verticalLabelPosition=bottom;verticalAlign=top;align=center;html=1;fontSize=12;fontStyle=0;aspect=fixed;pointerEvents=1;shape=mxgraph.aws4.factory;" parent="1" vertex="1">
          <mxGeometry x="38.500000000000156" y="456.99999999999994" width="78" height="78" as="geometry" />
        </mxCell>
        <mxCell id="UEzPUAAOIrF-is8g5C7q-8" value="Channel" style="outlineConnect=0;fontColor=#232F3E;gradientColor=none;fillColor=#277116;strokeColor=none;dashed=0;verticalLabelPosition=bottom;verticalAlign=top;align=center;html=1;fontSize=12;fontStyle=0;aspect=fixed;pointerEvents=1;shape=mxgraph.aws4.iot_analytics_channel;" parent="1" vertex="1">
          <mxGeometry x="263.5" y="320.99999999999983" width="65" height="78" as="geometry" />
        </mxCell>
        <mxCell id="UEzPUAAOIrF-is8g5C7q-9" value="AWS IoT SiteWise&lt;br&gt;Connector&lt;br&gt;" style="outlineConnect=0;fontColor=#232F3E;gradientColor=#60A337;gradientDirection=north;fillColor=#277116;strokeColor=#ffffff;dashed=0;verticalLabelPosition=bottom;verticalAlign=top;align=center;html=1;fontSize=12;fontStyle=0;aspect=fixed;shape=mxgraph.aws4.resourceIcon;resIcon=mxgraph.aws4.iot_sitewise;" parent="1" vertex="1">
          <mxGeometry x="257" y="457" width="78" height="78" as="geometry" />
        </mxCell>
        <mxCell id="UEzPUAAOIrF-is8g5C7q-10" value="2" style="rounded=1;whiteSpace=wrap;html=1;fillColor=#007CBD;strokeColor=none;fontColor=#FFFFFF;fontStyle=1;fontSize=22;" parent="1" vertex="1">
          <mxGeometry x="335" y="306" width="40" height="38" as="geometry" />
        </mxCell>
        <mxCell id="UEzPUAAOIrF-is8g5C7q-11" value="AWS IoT Core" style="outlineConnect=0;fontColor=#232F3E;gradientColor=#60A337;gradientDirection=north;fillColor=#277116;strokeColor=#ffffff;dashed=0;verticalLabelPosition=bottom;verticalAlign=top;align=center;html=1;fontSize=12;fontStyle=0;aspect=fixed;shape=mxgraph.aws4.resourceIcon;resIcon=mxgraph.aws4.iot_core;" parent="1" vertex="1">
          <mxGeometry x="485.5000000000001" y="320.99999999999983" width="78" height="78" as="geometry" />
        </mxCell>
        <mxCell id="UEzPUAAOIrF-is8g5C7q-12" value="AWS IoT SiteWise" style="outlineConnect=0;fontColor=#232F3E;gradientColor=#60A337;gradientDirection=north;fillColor=#277116;strokeColor=#ffffff;dashed=0;verticalLabelPosition=bottom;verticalAlign=top;align=center;html=1;fontSize=12;fontStyle=0;aspect=fixed;shape=mxgraph.aws4.resourceIcon;resIcon=mxgraph.aws4.iot_sitewise;" parent="1" vertex="1">
          <mxGeometry x="485.5000000000001" y="457" width="78" height="78" as="geometry" />
        </mxCell>
        <mxCell id="UEzPUAAOIrF-is8g5C7q-13" value="AWS IoT Analytics" style="outlineConnect=0;fontColor=#232F3E;gradientColor=#60A337;gradientDirection=north;fillColor=#277116;strokeColor=#ffffff;dashed=0;verticalLabelPosition=bottom;verticalAlign=top;align=center;html=1;fontSize=12;fontStyle=0;aspect=fixed;shape=mxgraph.aws4.resourceIcon;resIcon=mxgraph.aws4.iot_analytics;labelBackgroundColor=#ffffff;spacingTop=6;" parent="1" vertex="1">
          <mxGeometry x="681.9999999999997" y="320.99999999999994" width="78" height="78" as="geometry" />
        </mxCell>
        <mxCell id="UEzPUAAOIrF-is8g5C7q-14" value="Notebook" style="outlineConnect=0;fontColor=#232F3E;gradientColor=none;fillColor=#116D5B;strokeColor=none;dashed=0;verticalLabelPosition=bottom;verticalAlign=top;align=center;html=1;fontSize=12;fontStyle=0;aspect=fixed;pointerEvents=1;shape=mxgraph.aws4.sagemaker_notebook;labelBackgroundColor=#ffffff;spacingTop=6;" parent="1" vertex="1">
          <mxGeometry x="701.4999999999999" y="226" width="39" height="45" as="geometry" />
        </mxCell>
        <mxCell id="UEzPUAAOIrF-is8g5C7q-15" value="docker container" style="outlineConnect=0;fontColor=#232F3E;gradientColor=none;fillColor=#D05C17;strokeColor=none;dashed=0;verticalLabelPosition=bottom;verticalAlign=top;align=center;html=1;fontSize=12;fontStyle=0;aspect=fixed;pointerEvents=1;shape=mxgraph.aws4.container_1;labelBackgroundColor=#ffffff;" parent="1" vertex="1">
          <mxGeometry x="699.0000000000001" y="481.9999999999999" width="44" height="28" as="geometry" />
        </mxCell>
        <mxCell id="UEzPUAAOIrF-is8g5C7q-16" value="Amazon QuickSight" style="outlineConnect=0;fontColor=#232F3E;gradientColor=#945DF2;gradientDirection=north;fillColor=#5A30B5;strokeColor=#ffffff;dashed=0;verticalLabelPosition=bottom;verticalAlign=top;align=center;html=1;fontSize=12;fontStyle=0;aspect=fixed;shape=mxgraph.aws4.resourceIcon;resIcon=mxgraph.aws4.quicksight;" parent="1" vertex="1">
          <mxGeometry x="895.5000000000001" y="320.99999999999983" width="78" height="78" as="geometry" />
        </mxCell>
        <mxCell id="UEzPUAAOIrF-is8g5C7q-17" value="Amazon SNS" style="outlineConnect=0;fontColor=#232F3E;gradientColor=#F34482;gradientDirection=north;fillColor=#BC1356;strokeColor=#ffffff;dashed=0;verticalLabelPosition=bottom;verticalAlign=top;align=center;html=1;fontSize=12;fontStyle=0;aspect=fixed;shape=mxgraph.aws4.resourceIcon;resIcon=mxgraph.aws4.sns;" parent="1" vertex="1">
          <mxGeometry x="895.5000000000001" y="457" width="78" height="78" as="geometry" />
        </mxCell>
        <mxCell id="UEzPUAAOIrF-is8g5C7q-18" value="Amazon ECR" style="outlineConnect=0;fontColor=#232F3E;gradientColor=#F78E04;gradientDirection=north;fillColor=#D05C17;strokeColor=#ffffff;dashed=0;verticalLabelPosition=bottom;verticalAlign=top;align=center;html=1;fontSize=12;fontStyle=0;aspect=fixed;shape=mxgraph.aws4.resourceIcon;resIcon=mxgraph.aws4.ecr;" parent="1" vertex="1">
          <mxGeometry x="681.9999999999997" y="542" width="78" height="78" as="geometry" />
        </mxCell>
        <mxCell id="UEzPUAAOIrF-is8g5C7q-19" value="3" style="rounded=1;whiteSpace=wrap;html=1;fillColor=#007CBD;strokeColor=none;fontColor=#FFFFFF;fontStyle=1;fontSize=22;" parent="1" vertex="1">
          <mxGeometry x="445.5" y="562" width="40" height="38" as="geometry" />
        </mxCell>
        <mxCell id="UEzPUAAOIrF-is8g5C7q-20" value="4" style="rounded=1;whiteSpace=wrap;html=1;fillColor=#007CBD;strokeColor=none;fontColor=#FFFFFF;fontStyle=1;fontSize=22;" parent="1" vertex="1">
          <mxGeometry x="655.5" y="210.5" width="40" height="38" as="geometry" />
        </mxCell>
        <mxCell id="UEzPUAAOIrF-is8g5C7q-21" value="5" style="rounded=1;whiteSpace=wrap;html=1;fillColor=#007CBD;strokeColor=none;fontColor=#FFFFFF;fontStyle=1;fontSize=22;" parent="1" vertex="1">
          <mxGeometry x="635.5" y="291" width="40" height="38" as="geometry" />
        </mxCell>
        <mxCell id="UEzPUAAOIrF-is8g5C7q-22" value="6" style="rounded=1;whiteSpace=wrap;html=1;fillColor=#007CBD;strokeColor=none;fontColor=#FFFFFF;fontStyle=1;fontSize=22;" parent="1" vertex="1">
          <mxGeometry x="645.5" y="463" width="40" height="38" as="geometry" />
        </mxCell>
        <mxCell id="UEzPUAAOIrF-is8g5C7q-23" value="7" style="rounded=1;whiteSpace=wrap;html=1;fillColor=#007CBD;strokeColor=none;fontColor=#FFFFFF;fontStyle=1;fontSize=22;" parent="1" vertex="1">
          <mxGeometry x="845.5" y="293" width="40" height="38" as="geometry" />
        </mxCell>
        <mxCell id="UEzPUAAOIrF-is8g5C7q-24" value="8" style="rounded=1;whiteSpace=wrap;html=1;fillColor=#007CBD;strokeColor=none;fontColor=#FFFFFF;fontStyle=1;fontSize=22;" parent="1" vertex="1">
          <mxGeometry x="845.5" y="431" width="40" height="38" as="geometry" />
        </mxCell>
        <mxCell id="UEzPUAAOIrF-is8g5C7q-4" value="AWS IoT&lt;br&gt;Greengrass" style="outlineConnect=0;fontColor=#232F3E;gradientColor=#60A337;gradientDirection=north;fillColor=#277116;strokeColor=#ffffff;dashed=0;verticalLabelPosition=middle;verticalAlign=middle;align=left;html=1;fontSize=12;fontStyle=0;aspect=fixed;shape=mxgraph.aws4.resourceIcon;resIcon=mxgraph.aws4.greengrass;labelPosition=right;" parent="1" vertex="1">
          <mxGeometry x="175.5" y="281" width="40" height="40" as="geometry" />
        </mxCell>
      </root>
    </mxGraphModel>
  </diagram>
  <diagram id="ZEVyvkj1VugqwSTjGWgy" name="SSR Frontend">
    <mxGraphModel dx="1466" dy="2129" grid="1" gridSize="10" guides="1" tooltips="1" connect="1" arrows="1" fold="1" page="1" pageScale="1" pageWidth="850" pageHeight="1100" math="0" shadow="0">
      <root>
        <mxCell id="0" />
        <mxCell id="1" parent="0" />
        <mxCell id="j2Fal2WCx0PZaMNevPyt-5" value="" style="rounded=0;whiteSpace=wrap;html=1;fillColor=none;strokeColor=#666666;fontColor=#333333;strokeWidth=2;glass=0;movable=0;resizable=0;rotatable=0;deletable=0;editable=0;locked=1;connectable=0;" parent="1" vertex="1">
          <mxGeometry x="40" y="100" width="770" height="610" as="geometry" />
        </mxCell>
        <mxCell id="j2Fal2WCx0PZaMNevPyt-3" value="AWS" style="text;html=1;align=center;verticalAlign=middle;whiteSpace=wrap;rounded=0;" parent="1" vertex="1">
          <mxGeometry x="40" y="100" width="60" height="30" as="geometry" />
        </mxCell>
        <mxCell id="j2Fal2WCx0PZaMNevPyt-7" value="" style="sketch=0;points=[[0,0,0],[0.25,0,0],[0.5,0,0],[0.75,0,0],[1,0,0],[0,1,0],[0.25,1,0],[0.5,1,0],[0.75,1,0],[1,1,0],[0,0.25,0],[0,0.5,0],[0,0.75,0],[1,0.25,0],[1,0.5,0],[1,0.75,0]];outlineConnect=0;fontColor=#232F3E;fillColor=#8C4FFF;strokeColor=#ffffff;dashed=0;verticalLabelPosition=bottom;verticalAlign=top;align=center;html=1;fontSize=12;fontStyle=0;aspect=fixed;shape=mxgraph.aws4.resourceIcon;resIcon=mxgraph.aws4.vpc;" parent="1" vertex="1">
          <mxGeometry x="150" y="140" width="30" height="30" as="geometry" />
        </mxCell>
        <mxCell id="j2Fal2WCx0PZaMNevPyt-8" value="VPC" style="text;html=1;align=center;verticalAlign=middle;whiteSpace=wrap;rounded=0;" parent="1" vertex="1">
          <mxGeometry x="170" y="140" width="60" height="30" as="geometry" />
        </mxCell>
        <mxCell id="j2Fal2WCx0PZaMNevPyt-11" value="Public subnet" style="points=[[0,0],[0.25,0],[0.5,0],[0.75,0],[1,0],[1,0.25],[1,0.5],[1,0.75],[1,1],[0.75,1],[0.5,1],[0.25,1],[0,1],[0,0.75],[0,0.5],[0,0.25]];outlineConnect=0;gradientColor=none;html=1;whiteSpace=wrap;fontSize=12;fontStyle=0;container=1;pointerEvents=0;collapsible=0;recursiveResize=0;shape=mxgraph.aws4.group;grIcon=mxgraph.aws4.group_security_group;grStroke=0;strokeColor=#7AA116;fillColor=#F2F6E8;verticalAlign=top;align=left;spacingLeft=30;fontColor=#248814;dashed=0;" parent="1" vertex="1">
          <mxGeometry x="181" y="182" width="219" height="138" as="geometry" />
        </mxCell>
        <mxCell id="j2Fal2WCx0PZaMNevPyt-20" value="" style="sketch=0;outlineConnect=0;fontColor=#232F3E;gradientColor=none;fillColor=#8C4FFF;strokeColor=none;dashed=0;verticalLabelPosition=bottom;verticalAlign=top;align=center;html=1;fontSize=12;fontStyle=0;aspect=fixed;pointerEvents=1;shape=mxgraph.aws4.nat_gateway;" parent="j2Fal2WCx0PZaMNevPyt-11" vertex="1">
          <mxGeometry x="89" y="18" width="30" height="30" as="geometry" />
        </mxCell>
        <mxCell id="j2Fal2WCx0PZaMNevPyt-13" value="Private subnet" style="points=[[0,0],[0.25,0],[0.5,0],[0.75,0],[1,0],[1,0.25],[1,0.5],[1,0.75],[1,1],[0.75,1],[0.5,1],[0.25,1],[0,1],[0,0.75],[0,0.5],[0,0.25]];outlineConnect=0;gradientColor=none;html=1;whiteSpace=wrap;fontSize=12;fontStyle=0;container=1;pointerEvents=0;collapsible=0;recursiveResize=0;shape=mxgraph.aws4.group;grIcon=mxgraph.aws4.group_security_group;grStroke=0;strokeColor=#00A4A6;fillColor=#E6F6F7;verticalAlign=top;align=left;spacingLeft=30;fontColor=#147EBA;dashed=0;" parent="1" vertex="1">
          <mxGeometry x="180" y="345" width="220" height="140" as="geometry" />
        </mxCell>
        <mxCell id="j2Fal2WCx0PZaMNevPyt-15" value="Public subnet" style="points=[[0,0],[0.25,0],[0.5,0],[0.75,0],[1,0],[1,0.25],[1,0.5],[1,0.75],[1,1],[0.75,1],[0.5,1],[0.25,1],[0,1],[0,0.75],[0,0.5],[0,0.25]];outlineConnect=0;gradientColor=none;html=1;whiteSpace=wrap;fontSize=12;fontStyle=0;container=1;pointerEvents=0;collapsible=0;recursiveResize=0;shape=mxgraph.aws4.group;grIcon=mxgraph.aws4.group_security_group;grStroke=0;strokeColor=#7AA116;fillColor=#F2F6E8;verticalAlign=top;align=left;spacingLeft=30;fontColor=#248814;dashed=0;" parent="1" vertex="1">
          <mxGeometry x="450" y="182" width="219" height="138" as="geometry" />
        </mxCell>
        <mxCell id="j2Fal2WCx0PZaMNevPyt-21" value="" style="sketch=0;outlineConnect=0;fontColor=#232F3E;gradientColor=none;fillColor=#8C4FFF;strokeColor=none;dashed=0;verticalLabelPosition=bottom;verticalAlign=top;align=center;html=1;fontSize=12;fontStyle=0;aspect=fixed;pointerEvents=1;shape=mxgraph.aws4.nat_gateway;" parent="j2Fal2WCx0PZaMNevPyt-15" vertex="1">
          <mxGeometry x="100" y="18" width="30" height="30" as="geometry" />
        </mxCell>
        <mxCell id="j2Fal2WCx0PZaMNevPyt-16" value="Private subnet" style="points=[[0,0],[0.25,0],[0.5,0],[0.75,0],[1,0],[1,0.25],[1,0.5],[1,0.75],[1,1],[0.75,1],[0.5,1],[0.25,1],[0,1],[0,0.75],[0,0.5],[0,0.25]];outlineConnect=0;gradientColor=none;html=1;whiteSpace=wrap;fontSize=12;fontStyle=0;container=1;pointerEvents=0;collapsible=0;recursiveResize=0;shape=mxgraph.aws4.group;grIcon=mxgraph.aws4.group_security_group;grStroke=0;strokeColor=#00A4A6;fillColor=#E6F6F7;verticalAlign=top;align=left;spacingLeft=30;fontColor=#147EBA;dashed=0;" parent="1" vertex="1">
          <mxGeometry x="449" y="510" width="220" height="140" as="geometry" />
        </mxCell>
        <mxCell id="j2Fal2WCx0PZaMNevPyt-17" value="Private subnet" style="points=[[0,0],[0.25,0],[0.5,0],[0.75,0],[1,0],[1,0.25],[1,0.5],[1,0.75],[1,1],[0.75,1],[0.5,1],[0.25,1],[0,1],[0,0.75],[0,0.5],[0,0.25]];outlineConnect=0;gradientColor=none;html=1;whiteSpace=wrap;fontSize=12;fontStyle=0;container=1;pointerEvents=0;collapsible=0;recursiveResize=0;shape=mxgraph.aws4.group;grIcon=mxgraph.aws4.group_security_group;grStroke=0;strokeColor=#00A4A6;fillColor=#E6F6F7;verticalAlign=top;align=left;spacingLeft=30;fontColor=#147EBA;dashed=0;" parent="1" vertex="1">
          <mxGeometry x="449" y="345" width="220" height="140" as="geometry" />
        </mxCell>
        <mxCell id="j2Fal2WCx0PZaMNevPyt-18" value="Private subnet" style="points=[[0,0],[0.25,0],[0.5,0],[0.75,0],[1,0],[1,0.25],[1,0.5],[1,0.75],[1,1],[0.75,1],[0.5,1],[0.25,1],[0,1],[0,0.75],[0,0.5],[0,0.25]];outlineConnect=0;gradientColor=none;html=1;whiteSpace=wrap;fontSize=12;fontStyle=0;container=1;pointerEvents=0;collapsible=0;recursiveResize=0;shape=mxgraph.aws4.group;grIcon=mxgraph.aws4.group_security_group;grStroke=0;strokeColor=#00A4A6;fillColor=#E6F6F7;verticalAlign=top;align=left;spacingLeft=30;fontColor=#147EBA;dashed=0;" parent="1" vertex="1">
          <mxGeometry x="181" y="510" width="220" height="140" as="geometry" />
        </mxCell>
        <mxCell id="j2Fal2WCx0PZaMNevPyt-38" style="edgeStyle=orthogonalEdgeStyle;rounded=0;orthogonalLoop=1;jettySize=auto;html=1;strokeColor=#000000;startArrow=classic;startFill=1;strokeWidth=1;endSize=2;startSize=2;jumpSize=2;" parent="1" source="j2Fal2WCx0PZaMNevPyt-19" edge="1">
          <mxGeometry relative="1" as="geometry">
            <mxPoint x="290" y="200" as="targetPoint" />
          </mxGeometry>
        </mxCell>
        <mxCell id="j2Fal2WCx0PZaMNevPyt-43" style="edgeStyle=orthogonalEdgeStyle;rounded=0;orthogonalLoop=1;jettySize=auto;html=1;strokeColor=#000000;startArrow=classic;startFill=1;endSize=2;startSize=2;" parent="1" source="j2Fal2WCx0PZaMNevPyt-19" edge="1">
          <mxGeometry relative="1" as="geometry">
            <mxPoint x="560" y="200" as="targetPoint" />
          </mxGeometry>
        </mxCell>
        <mxCell id="j2Fal2WCx0PZaMNevPyt-19" value="" style="sketch=0;outlineConnect=0;fontColor=#232F3E;gradientColor=none;fillColor=#8C4FFF;strokeColor=none;dashed=0;verticalLabelPosition=bottom;verticalAlign=top;align=center;html=1;fontSize=12;fontStyle=0;aspect=fixed;pointerEvents=1;shape=mxgraph.aws4.internet_gateway;" parent="1" vertex="1">
          <mxGeometry x="410" y="120" width="30" height="30" as="geometry" />
        </mxCell>
        <mxCell id="j2Fal2WCx0PZaMNevPyt-22" value="" style="rounded=0;whiteSpace=wrap;html=1;dashed=1;fillColor=none;strokeColor=#6c8ebf;movable=0;resizable=0;rotatable=0;deletable=0;editable=0;locked=1;connectable=0;" parent="1" vertex="1">
          <mxGeometry x="170" y="120" width="240" height="580" as="geometry" />
        </mxCell>
        <mxCell id="j2Fal2WCx0PZaMNevPyt-23" value="&lt;font style=&quot;font-size: 9px;&quot;&gt;Availability Zone 1&lt;/font&gt;" style="text;html=1;align=center;verticalAlign=middle;whiteSpace=wrap;rounded=0;movable=0;resizable=0;rotatable=0;deletable=0;editable=0;locked=1;connectable=0;" parent="1" vertex="1">
          <mxGeometry x="226" y="110" width="130" height="30" as="geometry" />
        </mxCell>
        <mxCell id="j2Fal2WCx0PZaMNevPyt-24" value="" style="rounded=0;whiteSpace=wrap;html=1;dashed=1;fillColor=none;strokeColor=#6c8ebf;movable=0;resizable=0;rotatable=0;deletable=0;editable=0;locked=1;connectable=0;" parent="1" vertex="1">
          <mxGeometry x="440" y="120" width="240" height="580" as="geometry" />
        </mxCell>
        <mxCell id="j2Fal2WCx0PZaMNevPyt-25" value="&lt;font style=&quot;font-size: 9px;&quot;&gt;Availability Zone 2&lt;/font&gt;" style="text;html=1;align=center;verticalAlign=middle;whiteSpace=wrap;rounded=0;movable=0;resizable=0;rotatable=0;deletable=0;editable=0;locked=1;connectable=0;" parent="1" vertex="1">
          <mxGeometry x="494" y="110" width="130" height="30" as="geometry" />
        </mxCell>
        <mxCell id="j2Fal2WCx0PZaMNevPyt-26" value="&lt;font style=&quot;font-size: 8px;&quot;&gt;Internet Gateway&lt;/font&gt;" style="text;html=1;align=center;verticalAlign=middle;whiteSpace=wrap;rounded=0;" parent="1" vertex="1">
          <mxGeometry x="395" y="150" width="60" height="30" as="geometry" />
        </mxCell>
        <mxCell id="j2Fal2WCx0PZaMNevPyt-27" value="&lt;font style=&quot;font-size: 8px;&quot;&gt;NAT Gateway&lt;/font&gt;" style="text;html=1;align=center;verticalAlign=middle;whiteSpace=wrap;rounded=0;movable=0;resizable=0;rotatable=0;deletable=0;editable=0;locked=1;connectable=0;" parent="1" vertex="1">
          <mxGeometry x="255" y="220" width="60" height="30" as="geometry" />
        </mxCell>
        <mxCell id="j2Fal2WCx0PZaMNevPyt-28" value="&lt;font style=&quot;font-size: 8px;&quot;&gt;NAT Gateway&lt;/font&gt;" style="text;html=1;align=center;verticalAlign=middle;whiteSpace=wrap;rounded=0;movable=0;resizable=0;rotatable=0;deletable=0;editable=0;locked=1;connectable=0;" parent="1" vertex="1">
          <mxGeometry x="539" y="220" width="60" height="30" as="geometry" />
        </mxCell>
        <mxCell id="j2Fal2WCx0PZaMNevPyt-29" value="" style="sketch=0;outlineConnect=0;fontColor=#232F3E;gradientColor=none;fillColor=#8C4FFF;strokeColor=none;dashed=0;verticalLabelPosition=bottom;verticalAlign=top;align=center;html=1;fontSize=12;fontStyle=0;aspect=fixed;pointerEvents=1;shape=mxgraph.aws4.application_load_balancer;" parent="1" vertex="1">
          <mxGeometry x="410" y="83" width="30" height="30" as="geometry" />
        </mxCell>
        <mxCell id="j2Fal2WCx0PZaMNevPyt-58" style="edgeStyle=orthogonalEdgeStyle;rounded=0;orthogonalLoop=1;jettySize=auto;html=1;" parent="1" source="j2Fal2WCx0PZaMNevPyt-30" edge="1">
          <mxGeometry relative="1" as="geometry">
            <mxPoint x="310" y="400" as="targetPoint" />
          </mxGeometry>
        </mxCell>
        <mxCell id="j2Fal2WCx0PZaMNevPyt-59" style="edgeStyle=orthogonalEdgeStyle;rounded=0;orthogonalLoop=1;jettySize=auto;html=1;" parent="1" source="j2Fal2WCx0PZaMNevPyt-30" edge="1">
          <mxGeometry relative="1" as="geometry">
            <mxPoint x="559.9999999999998" y="400" as="targetPoint" />
          </mxGeometry>
        </mxCell>
        <mxCell id="j2Fal2WCx0PZaMNevPyt-30" value="" style="sketch=0;outlineConnect=0;fontColor=#232F3E;gradientColor=none;fillColor=#8C4FFF;strokeColor=none;dashed=0;verticalLabelPosition=bottom;verticalAlign=top;align=center;html=1;fontSize=12;fontStyle=0;aspect=fixed;pointerEvents=1;shape=mxgraph.aws4.application_load_balancer;" parent="1" vertex="1">
          <mxGeometry x="410" y="341" width="30" height="30" as="geometry" />
        </mxCell>
        <mxCell id="j2Fal2WCx0PZaMNevPyt-45" value="&lt;font style=&quot;font-size: 8px;&quot;&gt;ALB&lt;/font&gt;" style="text;html=1;align=center;verticalAlign=middle;whiteSpace=wrap;rounded=0;" parent="1" vertex="1">
          <mxGeometry x="410" y="111" width="30" height="10" as="geometry" />
        </mxCell>
        <mxCell id="j2Fal2WCx0PZaMNevPyt-46" value="&lt;font style=&quot;font-size: 8px;&quot;&gt;ALB&lt;/font&gt;" style="text;html=1;align=center;verticalAlign=middle;whiteSpace=wrap;rounded=0;" parent="1" vertex="1">
          <mxGeometry x="410" y="370" width="30" height="10" as="geometry" />
        </mxCell>
        <mxCell id="j2Fal2WCx0PZaMNevPyt-47" value="" style="group" parent="1" vertex="1" connectable="0">
          <mxGeometry x="150" y="140" width="590" height="550" as="geometry" />
        </mxCell>
        <mxCell id="j2Fal2WCx0PZaMNevPyt-6" value="" style="whiteSpace=wrap;html=1;aspect=fixed;fillColor=none;strokeColor=#8C4FFF;strokeWidth=2;movable=0;resizable=0;rotatable=0;deletable=0;editable=0;locked=1;connectable=0;" parent="j2Fal2WCx0PZaMNevPyt-47" vertex="1">
          <mxGeometry width="550" height="550" as="geometry" />
        </mxCell>
        <mxCell id="j2Fal2WCx0PZaMNevPyt-31" value="" style="sketch=0;points=[[0,0,0],[0.25,0,0],[0.5,0,0],[0.75,0,0],[1,0,0],[0,1,0],[0.25,1,0],[0.5,1,0],[0.75,1,0],[1,1,0],[0,0.25,0],[0,0.5,0],[0,0.75,0],[1,0.25,0],[1,0.5,0],[1,0.75,0]];outlineConnect=0;fontColor=#232F3E;fillColor=#ED7100;strokeColor=#ffffff;dashed=0;verticalLabelPosition=bottom;verticalAlign=top;align=center;html=1;fontSize=12;fontStyle=0;aspect=fixed;shape=mxgraph.aws4.resourceIcon;resIcon=mxgraph.aws4.fargate;" parent="j2Fal2WCx0PZaMNevPyt-47" vertex="1">
          <mxGeometry x="120" y="120" width="30" height="30" as="geometry" />
        </mxCell>
        <mxCell id="j2Fal2WCx0PZaMNevPyt-32" value="" style="sketch=0;points=[[0,0,0],[0.25,0,0],[0.5,0,0],[0.75,0,0],[1,0,0],[0,1,0],[0.25,1,0],[0.5,1,0],[0.75,1,0],[1,1,0],[0,0.25,0],[0,0.5,0],[0,0.75,0],[1,0.25,0],[1,0.5,0],[1,0.75,0]];outlineConnect=0;fontColor=#232F3E;fillColor=#ED7100;strokeColor=#ffffff;dashed=0;verticalLabelPosition=bottom;verticalAlign=top;align=center;html=1;fontSize=12;fontStyle=0;aspect=fixed;shape=mxgraph.aws4.resourceIcon;resIcon=mxgraph.aws4.fargate;" parent="j2Fal2WCx0PZaMNevPyt-47" vertex="1">
          <mxGeometry x="395" y="120" width="30" height="30" as="geometry" />
        </mxCell>
        <mxCell id="j2Fal2WCx0PZaMNevPyt-33" value="&lt;font style=&quot;font-size: 7px;&quot;&gt;ECS Fargate Frontend&lt;/font&gt;" style="text;html=1;align=center;verticalAlign=middle;whiteSpace=wrap;rounded=0;" parent="j2Fal2WCx0PZaMNevPyt-47" vertex="1">
          <mxGeometry x="106" y="146" width="60" height="30" as="geometry" />
        </mxCell>
        <mxCell id="j2Fal2WCx0PZaMNevPyt-34" value="&lt;font style=&quot;font-size: 7px;&quot;&gt;ECS Fargate Frontend&lt;/font&gt;" style="text;html=1;align=center;verticalAlign=middle;whiteSpace=wrap;rounded=0;" parent="j2Fal2WCx0PZaMNevPyt-47" vertex="1">
          <mxGeometry x="379" y="146" width="60" height="30" as="geometry" />
        </mxCell>
        <mxCell id="j2Fal2WCx0PZaMNevPyt-55" style="edgeStyle=orthogonalEdgeStyle;rounded=0;orthogonalLoop=1;jettySize=auto;html=1;" parent="j2Fal2WCx0PZaMNevPyt-47" source="j2Fal2WCx0PZaMNevPyt-36" edge="1">
          <mxGeometry relative="1" as="geometry">
            <mxPoint x="275.0000000000002" y="200" as="targetPoint" />
          </mxGeometry>
        </mxCell>
        <mxCell id="j2Fal2WCx0PZaMNevPyt-36" value="&lt;font style=&quot;font-size: 7px;&quot;&gt;Auto Scaling group&lt;/font&gt;" style="points=[[0,0],[0.25,0],[0.5,0],[0.75,0],[1,0],[1,0.25],[1,0.5],[1,0.75],[1,1],[0.75,1],[0.5,1],[0.25,1],[0,1],[0,0.75],[0,0.5],[0,0.25]];outlineConnect=0;gradientColor=none;html=1;whiteSpace=wrap;fontSize=12;fontStyle=0;container=1;pointerEvents=0;collapsible=0;recursiveResize=0;shape=mxgraph.aws4.groupCenter;grIcon=mxgraph.aws4.group_auto_scaling_group;grStroke=1;strokeColor=#D86613;fillColor=none;verticalAlign=top;align=center;fontColor=#D86613;dashed=1;spacingTop=25;" parent="j2Fal2WCx0PZaMNevPyt-47" vertex="1">
          <mxGeometry x="70" y="110" width="410" height="70" as="geometry" />
        </mxCell>
        <mxCell id="j2Fal2WCx0PZaMNevPyt-49" value="" style="sketch=0;points=[[0,0,0],[0.25,0,0],[0.5,0,0],[0.75,0,0],[1,0,0],[0,1,0],[0.25,1,0],[0.5,1,0],[0.75,1,0],[1,1,0],[0,0.25,0],[0,0.5,0],[0,0.75,0],[1,0.25,0],[1,0.5,0],[1,0.75,0]];outlineConnect=0;fontColor=#232F3E;fillColor=#ED7100;strokeColor=#ffffff;dashed=0;verticalLabelPosition=bottom;verticalAlign=top;align=center;html=1;fontSize=12;fontStyle=0;aspect=fixed;shape=mxgraph.aws4.resourceIcon;resIcon=mxgraph.aws4.fargate;" parent="j2Fal2WCx0PZaMNevPyt-47" vertex="1">
          <mxGeometry x="120" y="270" width="30" height="30" as="geometry" />
        </mxCell>
        <mxCell id="j2Fal2WCx0PZaMNevPyt-50" value="" style="sketch=0;points=[[0,0,0],[0.25,0,0],[0.5,0,0],[0.75,0,0],[1,0,0],[0,1,0],[0.25,1,0],[0.5,1,0],[0.75,1,0],[1,1,0],[0,0.25,0],[0,0.5,0],[0,0.75,0],[1,0.25,0],[1,0.5,0],[1,0.75,0]];outlineConnect=0;fontColor=#232F3E;fillColor=#ED7100;strokeColor=#ffffff;dashed=0;verticalLabelPosition=bottom;verticalAlign=top;align=center;html=1;fontSize=12;fontStyle=0;aspect=fixed;shape=mxgraph.aws4.resourceIcon;resIcon=mxgraph.aws4.fargate;" parent="j2Fal2WCx0PZaMNevPyt-47" vertex="1">
          <mxGeometry x="395" y="270" width="30" height="30" as="geometry" />
        </mxCell>
        <mxCell id="j2Fal2WCx0PZaMNevPyt-51" value="&lt;font style=&quot;font-size: 7px;&quot;&gt;ECS Fargate Backend&lt;/font&gt;" style="text;html=1;align=center;verticalAlign=middle;whiteSpace=wrap;rounded=0;" parent="j2Fal2WCx0PZaMNevPyt-47" vertex="1">
          <mxGeometry x="106" y="296" width="60" height="30" as="geometry" />
        </mxCell>
        <mxCell id="j2Fal2WCx0PZaMNevPyt-52" value="&lt;font style=&quot;font-size: 7px;&quot;&gt;ECS Fargate Backend&lt;/font&gt;" style="text;html=1;align=center;verticalAlign=middle;whiteSpace=wrap;rounded=0;" parent="j2Fal2WCx0PZaMNevPyt-47" vertex="1">
          <mxGeometry x="379" y="296" width="60" height="30" as="geometry" />
        </mxCell>
        <mxCell id="j2Fal2WCx0PZaMNevPyt-53" value="&lt;font style=&quot;font-size: 7px;&quot;&gt;Auto Scaling group&lt;/font&gt;" style="points=[[0,0],[0.25,0],[0.5,0],[0.75,0],[1,0],[1,0.25],[1,0.5],[1,0.75],[1,1],[0.75,1],[0.5,1],[0.25,1],[0,1],[0,0.75],[0,0.5],[0,0.25]];outlineConnect=0;gradientColor=none;html=1;whiteSpace=wrap;fontSize=12;fontStyle=0;container=1;pointerEvents=0;collapsible=0;recursiveResize=0;shape=mxgraph.aws4.groupCenter;grIcon=mxgraph.aws4.group_auto_scaling_group;grStroke=1;strokeColor=#D86613;fillColor=none;verticalAlign=top;align=center;fontColor=#D86613;dashed=1;spacingTop=25;" parent="j2Fal2WCx0PZaMNevPyt-47" vertex="1">
          <mxGeometry x="70" y="260" width="410" height="70" as="geometry" />
        </mxCell>
        <mxCell id="j2Fal2WCx0PZaMNevPyt-61" value="" style="sketch=0;points=[[0,0,0],[0.25,0,0],[0.5,0,0],[0.75,0,0],[1,0,0],[0,1,0],[0.25,1,0],[0.5,1,0],[0.75,1,0],[1,1,0],[0,0.25,0],[0,0.5,0],[0,0.75,0],[1,0.25,0],[1,0.5,0],[1,0.75,0]];outlineConnect=0;fontColor=#232F3E;fillColor=#C925D1;strokeColor=#ffffff;dashed=0;verticalLabelPosition=bottom;verticalAlign=top;align=center;html=1;fontSize=12;fontStyle=0;aspect=fixed;shape=mxgraph.aws4.resourceIcon;resIcon=mxgraph.aws4.rds;" parent="j2Fal2WCx0PZaMNevPyt-47" vertex="1">
          <mxGeometry x="116" y="420" width="40" height="40" as="geometry" />
        </mxCell>
        <mxCell id="j2Fal2WCx0PZaMNevPyt-62" value="" style="sketch=0;points=[[0,0,0],[0.25,0,0],[0.5,0,0],[0.75,0,0],[1,0,0],[0,1,0],[0.25,1,0],[0.5,1,0],[0.75,1,0],[1,1,0],[0,0.25,0],[0,0.5,0],[0,0.75,0],[1,0.25,0],[1,0.5,0],[1,0.75,0]];outlineConnect=0;fontColor=#232F3E;fillColor=#C925D1;strokeColor=#ffffff;dashed=0;verticalLabelPosition=bottom;verticalAlign=top;align=center;html=1;fontSize=12;fontStyle=0;aspect=fixed;shape=mxgraph.aws4.resourceIcon;resIcon=mxgraph.aws4.rds;" parent="j2Fal2WCx0PZaMNevPyt-47" vertex="1">
          <mxGeometry x="390" y="420" width="40" height="40" as="geometry" />
        </mxCell>
        <mxCell id="j2Fal2WCx0PZaMNevPyt-63" value="&lt;font style=&quot;font-size: 10px;&quot;&gt;RDS&lt;/font&gt;&lt;div style=&quot;font-size: 10px;&quot;&gt;&lt;font style=&quot;font-size: 10px;&quot;&gt;primary&lt;/font&gt;&lt;/div&gt;" style="text;html=1;align=center;verticalAlign=middle;whiteSpace=wrap;rounded=0;" parent="j2Fal2WCx0PZaMNevPyt-47" vertex="1">
          <mxGeometry x="103" y="450" width="64" height="40" as="geometry" />
        </mxCell>
        <mxCell id="j2Fal2WCx0PZaMNevPyt-64" value="&lt;font style=&quot;font-size: 10px;&quot;&gt;RDS&lt;/font&gt;&lt;div style=&quot;font-size: 10px;&quot;&gt;&lt;font style=&quot;font-size: 10px;&quot;&gt;standby&lt;/font&gt;&lt;/div&gt;" style="text;html=1;align=center;verticalAlign=middle;whiteSpace=wrap;rounded=0;" parent="j2Fal2WCx0PZaMNevPyt-47" vertex="1">
          <mxGeometry x="377" y="450" width="64" height="40" as="geometry" />
        </mxCell>
        <mxCell id="j2Fal2WCx0PZaMNevPyt-87" value="" style="rounded=1;arcSize=10;dashed=1;strokeColor=#ff0000;fillColor=none;gradientColor=none;dashPattern=8 4;strokeWidth=2;" parent="j2Fal2WCx0PZaMNevPyt-47" vertex="1">
          <mxGeometry x="56" y="30" width="444" height="160" as="geometry" />
        </mxCell>
        <mxCell id="j2Fal2WCx0PZaMNevPyt-88" value="" style="rounded=1;arcSize=10;dashed=1;strokeColor=#ff0000;fillColor=none;gradientColor=none;dashPattern=8 4;strokeWidth=2;" parent="j2Fal2WCx0PZaMNevPyt-47" vertex="1">
          <mxGeometry x="56" y="195" width="444" height="160" as="geometry" />
        </mxCell>
        <mxCell id="j2Fal2WCx0PZaMNevPyt-89" value="" style="rounded=1;arcSize=10;dashed=1;strokeColor=#ff0000;fillColor=none;gradientColor=none;dashPattern=8 4;strokeWidth=2;" parent="j2Fal2WCx0PZaMNevPyt-47" vertex="1">
          <mxGeometry x="56" y="360" width="444" height="160" as="geometry" />
        </mxCell>
        <mxCell id="DpyaxMkbVeGFXGaZ5tzv-2" value="2" style="rounded=1;whiteSpace=wrap;html=1;fillColor=#007CBD;strokeColor=none;fontColor=#FFFFFF;fontStyle=1;fontSize=22;" vertex="1" parent="j2Fal2WCx0PZaMNevPyt-47">
          <mxGeometry x="166" y="120" width="30" height="24" as="geometry" />
        </mxCell>
        <mxCell id="DpyaxMkbVeGFXGaZ5tzv-3" value="3" style="rounded=1;whiteSpace=wrap;html=1;fillColor=#007CBD;strokeColor=none;fontColor=#FFFFFF;fontStyle=1;fontSize=22;" vertex="1" parent="j2Fal2WCx0PZaMNevPyt-47">
          <mxGeometry x="240" y="210" width="20" height="22" as="geometry" />
        </mxCell>
        <mxCell id="DpyaxMkbVeGFXGaZ5tzv-4" value="4" style="rounded=1;whiteSpace=wrap;html=1;fillColor=#007CBD;strokeColor=none;fontColor=#FFFFFF;fontStyle=1;fontSize=22;" vertex="1" parent="j2Fal2WCx0PZaMNevPyt-47">
          <mxGeometry x="172" y="410" width="24" height="28" as="geometry" />
        </mxCell>
        <mxCell id="DpyaxMkbVeGFXGaZ5tzv-7" value="7" style="rounded=1;whiteSpace=wrap;html=1;fillColor=#007CBD;strokeColor=none;fontColor=#FFFFFF;fontStyle=1;fontSize=22;" vertex="1" parent="j2Fal2WCx0PZaMNevPyt-47">
          <mxGeometry x="550" y="80" width="20" height="20" as="geometry" />
        </mxCell>
        <mxCell id="DpyaxMkbVeGFXGaZ5tzv-8" value="8" style="rounded=1;whiteSpace=wrap;html=1;fillColor=#007CBD;strokeColor=none;fontColor=#FFFFFF;fontStyle=1;fontSize=22;" vertex="1" parent="j2Fal2WCx0PZaMNevPyt-47">
          <mxGeometry x="550" y="320" width="20" height="20" as="geometry" />
        </mxCell>
        <mxCell id="j2Fal2WCx0PZaMNevPyt-65" value="" style="rounded=0;whiteSpace=wrap;html=1;fillColor=none;fontColor=#333333;strokeColor=#666666;" parent="1" vertex="1">
          <mxGeometry x="365" y="-50" width="120" height="60" as="geometry" />
        </mxCell>
        <mxCell id="j2Fal2WCx0PZaMNevPyt-66" value="" style="verticalLabelPosition=bottom;sketch=0;html=1;fillColor=#282828;strokeColor=none;verticalAlign=top;pointerEvents=1;align=center;shape=mxgraph.cisco_safe.people_places_things_icons.icon1;" parent="1" vertex="1">
          <mxGeometry x="374" y="-30" width="21" height="20" as="geometry" />
        </mxCell>
        <mxCell id="j2Fal2WCx0PZaMNevPyt-67" value="" style="verticalLabelPosition=bottom;verticalAlign=top;html=1;shadow=0;dashed=0;strokeWidth=1;shape=mxgraph.android.phone2;strokeColor=#c0c0c0;" parent="1" vertex="1">
          <mxGeometry x="405" y="-34" width="19" height="30" as="geometry" />
        </mxCell>
        <mxCell id="j2Fal2WCx0PZaMNevPyt-68" value="" style="fontColor=#0066CC;verticalAlign=top;verticalLabelPosition=bottom;labelPosition=center;align=center;html=1;outlineConnect=0;fillColor=#CCCCCC;strokeColor=#6881B3;gradientColor=none;gradientDirection=north;strokeWidth=2;shape=mxgraph.networks.pc;" parent="1" vertex="1">
          <mxGeometry x="440" y="-37" width="41" height="34" as="geometry" />
        </mxCell>
        <mxCell id="j2Fal2WCx0PZaMNevPyt-72" style="edgeStyle=orthogonalEdgeStyle;rounded=0;orthogonalLoop=1;jettySize=auto;html=1;exitX=0.5;exitY=0;exitDx=0;exitDy=0;exitPerimeter=0;entryX=0.5;entryY=1;entryDx=0;entryDy=0;startArrow=classicThin;startFill=1;" parent="1" target="j2Fal2WCx0PZaMNevPyt-65" edge="1">
          <mxGeometry relative="1" as="geometry">
            <mxPoint x="425" y="81.99999999999977" as="sourcePoint" />
          </mxGeometry>
        </mxCell>
        <mxCell id="j2Fal2WCx0PZaMNevPyt-73" value="&lt;font style=&quot;font-size: 10px;&quot;&gt;Web Customers&lt;/font&gt;" style="text;html=1;align=center;verticalAlign=middle;whiteSpace=wrap;rounded=0;" parent="1" vertex="1">
          <mxGeometry x="340" y="-60" width="124" height="30" as="geometry" />
        </mxCell>
        <mxCell id="j2Fal2WCx0PZaMNevPyt-74" value="" style="sketch=0;points=[[0,0,0],[0.25,0,0],[0.5,0,0],[0.75,0,0],[1,0,0],[0,1,0],[0.25,1,0],[0.5,1,0],[0.75,1,0],[1,1,0],[0,0.25,0],[0,0.5,0],[0,0.75,0],[1,0.25,0],[1,0.5,0],[1,0.75,0]];outlineConnect=0;fontColor=#232F3E;fillColor=#7AA116;strokeColor=#ffffff;dashed=0;verticalLabelPosition=bottom;verticalAlign=top;align=center;html=1;fontSize=12;fontStyle=0;aspect=fixed;shape=mxgraph.aws4.resourceIcon;resIcon=mxgraph.aws4.s3;" parent="1" vertex="1">
          <mxGeometry x="78" y="270" width="30" height="30" as="geometry" />
        </mxCell>
        <mxCell id="j2Fal2WCx0PZaMNevPyt-76" value="" style="sketch=0;points=[[0,0,0],[0.25,0,0],[0.5,0,0],[0.75,0,0],[1,0,0],[0,1,0],[0.25,1,0],[0.5,1,0],[0.75,1,0],[1,1,0],[0,0.25,0],[0,0.5,0],[0,0.75,0],[1,0.25,0],[1,0.5,0],[1,0.75,0]];outlineConnect=0;fontColor=#232F3E;fillColor=#8C4FFF;strokeColor=#ffffff;dashed=0;verticalLabelPosition=bottom;verticalAlign=top;align=center;html=1;fontSize=12;fontStyle=0;aspect=fixed;shape=mxgraph.aws4.resourceIcon;resIcon=mxgraph.aws4.route_53;" parent="1" vertex="1">
          <mxGeometry x="78" y="430" width="28" height="28" as="geometry" />
        </mxCell>
        <mxCell id="j2Fal2WCx0PZaMNevPyt-78" value="" style="sketch=0;outlineConnect=0;fontColor=#232F3E;gradientColor=none;fillColor=#ED7100;strokeColor=none;dashed=0;verticalLabelPosition=bottom;verticalAlign=top;align=center;html=1;fontSize=12;fontStyle=0;aspect=fixed;pointerEvents=1;shape=mxgraph.aws4.registry;" parent="1" vertex="1">
          <mxGeometry x="78" y="500" width="30" height="30" as="geometry" />
        </mxCell>
        <mxCell id="j2Fal2WCx0PZaMNevPyt-80" value="" style="sketch=0;points=[[0,0,0],[0.25,0,0],[0.5,0,0],[0.75,0,0],[1,0,0],[0,1,0],[0.25,1,0],[0.5,1,0],[0.75,1,0],[1,1,0],[0,0.25,0],[0,0.5,0],[0,0.75,0],[1,0.25,0],[1,0.5,0],[1,0.75,0]];outlineConnect=0;fontColor=#232F3E;fillColor=#7AA116;strokeColor=#ffffff;dashed=0;verticalLabelPosition=bottom;verticalAlign=top;align=center;html=1;fontSize=12;fontStyle=0;aspect=fixed;shape=mxgraph.aws4.resourceIcon;resIcon=mxgraph.aws4.s3;" parent="1" vertex="1">
          <mxGeometry x="78" y="350" width="30" height="30" as="geometry" />
        </mxCell>
        <mxCell id="j2Fal2WCx0PZaMNevPyt-82" value="&lt;font style=&quot;font-size: 10px;&quot;&gt;S3 Static content&lt;/font&gt;" style="text;html=1;align=center;verticalAlign=middle;whiteSpace=wrap;rounded=0;" parent="1" vertex="1">
          <mxGeometry x="64" y="311" width="60" height="30" as="geometry" />
        </mxCell>
        <mxCell id="j2Fal2WCx0PZaMNevPyt-83" value="&lt;font style=&quot;font-size: 10px;&quot;&gt;S3 Database Backups&lt;/font&gt;" style="text;html=1;align=center;verticalAlign=middle;whiteSpace=wrap;rounded=0;" parent="1" vertex="1">
          <mxGeometry x="62" y="380" width="60" height="30" as="geometry" />
        </mxCell>
        <mxCell id="j2Fal2WCx0PZaMNevPyt-84" value="&lt;font style=&quot;font-size: 10px;&quot;&gt;Route 53&lt;/font&gt;" style="text;html=1;align=center;verticalAlign=middle;whiteSpace=wrap;rounded=0;" parent="1" vertex="1">
          <mxGeometry x="64" y="455" width="60" height="30" as="geometry" />
        </mxCell>
        <mxCell id="j2Fal2WCx0PZaMNevPyt-85" value="&lt;font style=&quot;font-size: 10px;&quot;&gt;Container Registry&lt;/font&gt;" style="text;html=1;align=center;verticalAlign=middle;whiteSpace=wrap;rounded=0;" parent="1" vertex="1">
          <mxGeometry x="63" y="530" width="60" height="30" as="geometry" />
        </mxCell>
        <mxCell id="j2Fal2WCx0PZaMNevPyt-90" value="" style="sketch=0;points=[[0,0,0],[0.25,0,0],[0.5,0,0],[0.75,0,0],[1,0,0],[0,1,0],[0.25,1,0],[0.5,1,0],[0.75,1,0],[1,1,0],[0,0.25,0],[0,0.5,0],[0,0.75,0],[1,0.25,0],[1,0.5,0],[1,0.75,0]];outlineConnect=0;fontColor=#232F3E;fillColor=#DD344C;strokeColor=#ffffff;dashed=0;verticalLabelPosition=bottom;verticalAlign=top;align=center;html=1;fontSize=12;fontStyle=0;aspect=fixed;shape=mxgraph.aws4.resourceIcon;resIcon=mxgraph.aws4.identity_and_access_management;" parent="1" vertex="1">
          <mxGeometry x="729" y="120" width="54" height="54" as="geometry" />
        </mxCell>
        <mxCell id="j2Fal2WCx0PZaMNevPyt-91" value="" style="sketch=0;points=[[0,0,0],[0.25,0,0],[0.5,0,0],[0.75,0,0],[1,0,0],[0,1,0],[0.25,1,0],[0.5,1,0],[0.75,1,0],[1,1,0],[0,0.25,0],[0,0.5,0],[0,0.75,0],[1,0.25,0],[1,0.5,0],[1,0.75,0]];outlineConnect=0;fontColor=#232F3E;fillColor=#DD344C;strokeColor=#ffffff;dashed=0;verticalLabelPosition=bottom;verticalAlign=top;align=center;html=1;fontSize=12;fontStyle=0;aspect=fixed;shape=mxgraph.aws4.resourceIcon;resIcon=mxgraph.aws4.key_management_service;" parent="1" vertex="1">
          <mxGeometry x="728" y="200" width="56" height="56" as="geometry" />
        </mxCell>
        <mxCell id="j2Fal2WCx0PZaMNevPyt-93" value="" style="sketch=0;points=[[0,0,0],[0.25,0,0],[0.5,0,0],[0.75,0,0],[1,0,0],[0,1,0],[0.25,1,0],[0.5,1,0],[0.75,1,0],[1,1,0],[0,0.25,0],[0,0.5,0],[0,0.75,0],[1,0.25,0],[1,0.5,0],[1,0.75,0]];points=[[0,0,0],[0.25,0,0],[0.5,0,0],[0.75,0,0],[1,0,0],[0,1,0],[0.25,1,0],[0.5,1,0],[0.75,1,0],[1,1,0],[0,0.25,0],[0,0.5,0],[0,0.75,0],[1,0.25,0],[1,0.5,0],[1,0.75,0]];outlineConnect=0;fontColor=#232F3E;fillColor=#E7157B;strokeColor=#ffffff;dashed=0;verticalLabelPosition=bottom;verticalAlign=top;align=center;html=1;fontSize=12;fontStyle=0;aspect=fixed;shape=mxgraph.aws4.resourceIcon;resIcon=mxgraph.aws4.cloudtrail;" parent="1" vertex="1">
          <mxGeometry x="728" y="395" width="60" height="60" as="geometry" />
        </mxCell>
        <mxCell id="j2Fal2WCx0PZaMNevPyt-94" value="" style="sketch=0;points=[[0,0,0],[0.25,0,0],[0.5,0,0],[0.75,0,0],[1,0,0],[0,1,0],[0.25,1,0],[0.5,1,0],[0.75,1,0],[1,1,0],[0,0.25,0],[0,0.5,0],[0,0.75,0],[1,0.25,0],[1,0.5,0],[1,0.75,0]];points=[[0,0,0],[0.25,0,0],[0.5,0,0],[0.75,0,0],[1,0,0],[0,1,0],[0.25,1,0],[0.5,1,0],[0.75,1,0],[1,1,0],[0,0.25,0],[0,0.5,0],[0,0.75,0],[1,0.25,0],[1,0.5,0],[1,0.75,0]];outlineConnect=0;fontColor=#232F3E;fillColor=#E7157B;strokeColor=#ffffff;dashed=0;verticalLabelPosition=bottom;verticalAlign=top;align=center;html=1;fontSize=12;fontStyle=0;aspect=fixed;shape=mxgraph.aws4.resourceIcon;resIcon=mxgraph.aws4.cloudwatch_2;" parent="1" vertex="1">
          <mxGeometry x="726" y="480" width="60" height="60" as="geometry" />
        </mxCell>
        <mxCell id="j2Fal2WCx0PZaMNevPyt-96" value="&lt;font style=&quot;font-size: 10px;&quot;&gt;IAM&lt;/font&gt;" style="text;html=1;align=center;verticalAlign=middle;whiteSpace=wrap;rounded=0;" parent="1" vertex="1">
          <mxGeometry x="727" y="170" width="60" height="30" as="geometry" />
        </mxCell>
        <mxCell id="j2Fal2WCx0PZaMNevPyt-97" value="" style="sketch=0;points=[[0,0,0],[0.25,0,0],[0.5,0,0],[0.75,0,0],[1,0,0],[0,1,0],[0.25,1,0],[0.5,1,0],[0.75,1,0],[1,1,0],[0,0.25,0],[0,0.5,0],[0,0.75,0],[1,0.25,0],[1,0.5,0],[1,0.75,0]];outlineConnect=0;fontColor=#232F3E;fillColor=#DD344C;strokeColor=#ffffff;dashed=0;verticalLabelPosition=bottom;verticalAlign=top;align=center;html=1;fontSize=12;fontStyle=0;aspect=fixed;shape=mxgraph.aws4.resourceIcon;resIcon=mxgraph.aws4.certificate_manager_3;" parent="1" vertex="1">
          <mxGeometry x="726" y="296" width="60" height="60" as="geometry" />
        </mxCell>
        <mxCell id="j2Fal2WCx0PZaMNevPyt-98" value="&lt;font style=&quot;font-size: 10px;&quot;&gt;Key Management&lt;/font&gt;" style="text;html=1;align=center;verticalAlign=middle;whiteSpace=wrap;rounded=0;" parent="1" vertex="1">
          <mxGeometry x="727" y="256" width="60" height="30" as="geometry" />
        </mxCell>
        <mxCell id="j2Fal2WCx0PZaMNevPyt-99" value="Certificate Manager" style="text;html=1;align=center;verticalAlign=middle;whiteSpace=wrap;rounded=0;" parent="1" vertex="1">
          <mxGeometry x="728" y="356" width="60" height="30" as="geometry" />
        </mxCell>
        <mxCell id="j2Fal2WCx0PZaMNevPyt-100" value="&lt;font style=&quot;font-size: 10px;&quot;&gt;CloudTrail&lt;/font&gt;" style="text;html=1;align=center;verticalAlign=middle;whiteSpace=wrap;rounded=0;" parent="1" vertex="1">
          <mxGeometry x="729" y="450" width="60" height="30" as="geometry" />
        </mxCell>
        <mxCell id="j2Fal2WCx0PZaMNevPyt-101" value="&lt;font style=&quot;font-size: 10px;&quot;&gt;CloudWatch&lt;/font&gt;" style="text;html=1;align=center;verticalAlign=middle;whiteSpace=wrap;rounded=0;" parent="1" vertex="1">
          <mxGeometry x="728" y="535" width="60" height="30" as="geometry" />
        </mxCell>
        <mxCell id="DpyaxMkbVeGFXGaZ5tzv-1" value="1" style="rounded=1;whiteSpace=wrap;html=1;fillColor=#007CBD;strokeColor=none;fontColor=#FFFFFF;fontStyle=1;fontSize=22;" vertex="1" parent="1">
          <mxGeometry x="384" y="78" width="21" height="21" as="geometry" />
        </mxCell>
        <mxCell id="DpyaxMkbVeGFXGaZ5tzv-5" value="5" style="rounded=1;whiteSpace=wrap;html=1;fillColor=#007CBD;strokeColor=none;fontColor=#FFFFFF;fontStyle=1;fontSize=22;" vertex="1" parent="1">
          <mxGeometry x="40" y="312" width="30" height="29" as="geometry" />
        </mxCell>
        <mxCell id="DpyaxMkbVeGFXGaZ5tzv-6" value="6" style="rounded=1;whiteSpace=wrap;html=1;fillColor=#007CBD;strokeColor=none;fontColor=#FFFFFF;fontStyle=1;fontSize=22;" vertex="1" parent="1">
          <mxGeometry x="43" y="495" width="27" height="30" as="geometry" />
        </mxCell>
        <mxCell id="snMZby3Yppjnr2zLVf3X-1" value="" style="rounded=0;whiteSpace=wrap;html=1;fillColor=#EAEDED;fontSize=22;fontColor=#FFFFFF;strokeColor=none;labelBackgroundColor=none;" vertex="1" parent="1">
          <mxGeometry x="850" y="49" width="539" height="969" as="geometry" />
        </mxCell>
        <mxCell id="snMZby3Yppjnr2zLVf3X-2" value="1" style="rounded=1;whiteSpace=wrap;html=1;fillColor=#007CBD;strokeColor=none;fontColor=#FFFFFF;fontStyle=1;fontSize=22;labelBackgroundColor=none;" vertex="1" parent="1">
          <mxGeometry x="868" y="61" width="40" height="38" as="geometry" />
        </mxCell>
        <mxCell id="snMZby3Yppjnr2zLVf3X-3" value="2" style="rounded=1;whiteSpace=wrap;html=1;fillColor=#007CBD;strokeColor=none;fontColor=#FFFFFF;fontStyle=1;fontSize=22;labelBackgroundColor=none;" vertex="1" parent="1">
          <mxGeometry x="866.5" y="183" width="40" height="38" as="geometry" />
        </mxCell>
        <mxCell id="snMZby3Yppjnr2zLVf3X-4" value="3" style="rounded=1;whiteSpace=wrap;html=1;fillColor=#007CBD;strokeColor=none;fontColor=#FFFFFF;fontStyle=1;fontSize=22;labelBackgroundColor=none;" vertex="1" parent="1">
          <mxGeometry x="866.5" y="303" width="40" height="38" as="geometry" />
        </mxCell>
        <mxCell id="snMZby3Yppjnr2zLVf3X-5" value="4" style="rounded=1;whiteSpace=wrap;html=1;fillColor=#007CBD;strokeColor=none;fontColor=#FFFFFF;fontStyle=1;fontSize=22;labelBackgroundColor=none;" vertex="1" parent="1">
          <mxGeometry x="866.5" y="417" width="40" height="38" as="geometry" />
        </mxCell>
        <mxCell id="snMZby3Yppjnr2zLVf3X-6" value="5" style="rounded=1;whiteSpace=wrap;html=1;fillColor=#007CBD;strokeColor=none;fontColor=#FFFFFF;fontStyle=1;fontSize=22;labelBackgroundColor=none;" vertex="1" parent="1">
          <mxGeometry x="868" y="534" width="40" height="38" as="geometry" />
        </mxCell>
        <mxCell id="snMZby3Yppjnr2zLVf3X-7" value="6" style="rounded=1;whiteSpace=wrap;html=1;fillColor=#007CBD;strokeColor=none;fontColor=#FFFFFF;fontStyle=1;fontSize=22;labelBackgroundColor=none;" vertex="1" parent="1">
          <mxGeometry x="869" y="649" width="40" height="38" as="geometry" />
        </mxCell>
        <mxCell id="snMZby3Yppjnr2zLVf3X-8" value="7" style="rounded=1;whiteSpace=wrap;html=1;fillColor=#007CBD;strokeColor=none;fontColor=#FFFFFF;fontStyle=1;fontSize=22;labelBackgroundColor=none;" vertex="1" parent="1">
          <mxGeometry x="868.5" y="765" width="40" height="38" as="geometry" />
        </mxCell>
        <mxCell id="snMZby3Yppjnr2zLVf3X-9" value="8" style="rounded=1;whiteSpace=wrap;html=1;fillColor=#007CBD;strokeColor=none;fontColor=#FFFFFF;fontStyle=1;fontSize=22;labelBackgroundColor=none;" vertex="1" parent="1">
          <mxGeometry x="869" y="883" width="40" height="38" as="geometry" />
        </mxCell>
        <mxCell id="snMZby3Yppjnr2zLVf3X-10" value="&lt;span&gt;Application Load Balancer que nos permite balancear todo el trafico de entrada desde los clientes. Se en cargará de balancear el tráfico entre el grupo de Fargate. También nos dará métricas y una capa de seguridad&lt;/span&gt;" style="text;html=1;align=left;verticalAlign=top;spacingTop=-4;fontSize=14;labelBackgroundColor=none;whiteSpace=wrap;" vertex="1" parent="1">
          <mxGeometry x="919.5" y="60.5" width="449" height="118" as="geometry" />
        </mxCell>
        <mxCell id="snMZby3Yppjnr2zLVf3X-11" value="&lt;span&gt;ECS Fargate con Auto Scaling group para tener elasticidad en el frontend, esto no permite optimizar costos, teniendo siempre la minima escala disponible para nuestros clientes y ir creciendo de acuerdo a la&amp;nbsp;&lt;/span&gt;demanda." style="text;html=1;align=left;verticalAlign=top;spacingTop=-4;fontSize=14;labelBackgroundColor=none;whiteSpace=wrap;" vertex="1" parent="1">
          <mxGeometry x="918.5" y="183.5" width="450" height="115" as="geometry" />
        </mxCell>
        <mxCell id="snMZby3Yppjnr2zLVf3X-12" value="&lt;span&gt;Application Load Balancer en el backend balanceando todo el trafico que llega desde el frontend, este lo distribuye entre todas las instancias de ECS de backend existentes y agrega una capa de seguridad de los datos en transito.&lt;/span&gt;" style="text;html=1;align=left;verticalAlign=top;spacingTop=-4;fontSize=14;labelBackgroundColor=none;whiteSpace=wrap;" vertex="1" parent="1">
          <mxGeometry x="918.5" y="301.5" width="450" height="117" as="geometry" />
        </mxCell>
        <mxCell id="snMZby3Yppjnr2zLVf3X-13" value="&lt;span&gt;Base de datos RDS con Mysql la cual solo será accesible desde el backend. Cuenta con una replica de alta disponibilidad en otra zona de disponibilidad en caso de fallos. Adicionalmente respaldos automatizados en el bucket de S3.&lt;/span&gt;" style="text;html=1;align=left;verticalAlign=top;spacingTop=-4;fontSize=14;labelBackgroundColor=none;whiteSpace=wrap;" vertex="1" parent="1">
          <mxGeometry x="918.5" y="417.5" width="450" height="121" as="geometry" />
        </mxCell>
        <mxCell id="snMZby3Yppjnr2zLVf3X-14" value="S3 buckets que nos permiten almacenar de forma segura contenido estático de nuestra aplicación y almacenar los respaldos de nuestras bases de datos." style="text;html=1;align=left;verticalAlign=top;spacingTop=-4;fontSize=14;labelBackgroundColor=none;whiteSpace=wrap;" vertex="1" parent="1">
          <mxGeometry x="919.5" y="534.5" width="449" height="114" as="geometry" />
        </mxCell>
        <mxCell id="snMZby3Yppjnr2zLVf3X-15" value="&lt;span&gt;Container registry donde se almacenarán las imágenes de los contenedores desplegados en las instancias ECS, de tal forma que pueda ser recuperable rápidamente en caso de algún falló.&lt;/span&gt;" style="text;html=1;align=left;verticalAlign=top;spacingTop=-4;fontSize=14;labelBackgroundColor=none;whiteSpace=wrap;" vertex="1" parent="1">
          <mxGeometry x="919.5" y="650.5" width="450" height="118" as="geometry" />
        </mxCell>
        <mxCell id="snMZby3Yppjnr2zLVf3X-16" value="&lt;span&gt;Capas de seguridad usadas para robuster nuestro diseño:&lt;/span&gt;&lt;br&gt;&lt;div&gt;&lt;span&gt;IAM para definir el minimo privilegio necesario en los recursos utilizados.&lt;/span&gt;&lt;/div&gt;&lt;div&gt;&lt;span&gt;Key Management para almacenar los secretos que puedan necesitar nuestras aplicaciones.&lt;/span&gt;&lt;/div&gt;&lt;div&gt;&lt;span&gt;Certificate Manager para crear los certificados TLS que nos permitan encriptar los request http(data en transito)&lt;/span&gt;&lt;/div&gt;" style="text;html=1;align=left;verticalAlign=top;spacingTop=-4;fontSize=14;labelBackgroundColor=none;whiteSpace=wrap;" vertex="1" parent="1">
          <mxGeometry x="919.5" y="765.5" width="449" height="113" as="geometry" />
        </mxCell>
        <mxCell id="snMZby3Yppjnr2zLVf3X-17" value="&lt;span&gt;Herramientas para hacer todo el monitoreo de nuestra infraestructura, conocer el estado de recursos, escalamiento, trafico y accesos de cuentas o usuarios.&lt;/span&gt;" style="text;html=1;align=left;verticalAlign=top;spacingTop=-4;fontSize=14;labelBackgroundColor=none;whiteSpace=wrap;" vertex="1" parent="1">
          <mxGeometry x="919.5" y="884.5" width="449" height="124" as="geometry" />
        </mxCell>
      </root>
    </mxGraphModel>
  </diagram>
  <diagram name="SPA Frontend" id="A1HBRzQxUl-MiHfVwIIB">
    <mxGraphModel dx="1026" dy="1820" grid="1" gridSize="10" guides="1" tooltips="1" connect="1" arrows="1" fold="1" page="1" pageScale="1" pageWidth="850" pageHeight="1100" math="0" shadow="0">
      <root>
        <mxCell id="AH1wI-OAd1k5MtHGwiSd-0" />
        <mxCell id="AH1wI-OAd1k5MtHGwiSd-1" parent="AH1wI-OAd1k5MtHGwiSd-0" />
        <mxCell id="AH1wI-OAd1k5MtHGwiSd-2" value="" style="rounded=0;whiteSpace=wrap;html=1;fillColor=none;strokeColor=#666666;fontColor=#333333;strokeWidth=2;glass=0;movable=0;resizable=0;rotatable=0;deletable=0;editable=0;locked=1;connectable=0;" vertex="1" parent="AH1wI-OAd1k5MtHGwiSd-1">
          <mxGeometry x="40" y="100" width="770" height="610" as="geometry" />
        </mxCell>
        <mxCell id="AH1wI-OAd1k5MtHGwiSd-3" value="AWS" style="text;html=1;align=center;verticalAlign=middle;whiteSpace=wrap;rounded=0;" vertex="1" parent="AH1wI-OAd1k5MtHGwiSd-1">
          <mxGeometry x="40" y="100" width="60" height="30" as="geometry" />
        </mxCell>
        <mxCell id="AH1wI-OAd1k5MtHGwiSd-4" value="" style="sketch=0;points=[[0,0,0],[0.25,0,0],[0.5,0,0],[0.75,0,0],[1,0,0],[0,1,0],[0.25,1,0],[0.5,1,0],[0.75,1,0],[1,1,0],[0,0.25,0],[0,0.5,0],[0,0.75,0],[1,0.25,0],[1,0.5,0],[1,0.75,0]];outlineConnect=0;fontColor=#232F3E;fillColor=#8C4FFF;strokeColor=#ffffff;dashed=0;verticalLabelPosition=bottom;verticalAlign=top;align=center;html=1;fontSize=12;fontStyle=0;aspect=fixed;shape=mxgraph.aws4.resourceIcon;resIcon=mxgraph.aws4.vpc;" vertex="1" parent="AH1wI-OAd1k5MtHGwiSd-1">
          <mxGeometry x="150" y="140" width="30" height="30" as="geometry" />
        </mxCell>
        <mxCell id="AH1wI-OAd1k5MtHGwiSd-5" value="VPC" style="text;html=1;align=center;verticalAlign=middle;whiteSpace=wrap;rounded=0;" vertex="1" parent="AH1wI-OAd1k5MtHGwiSd-1">
          <mxGeometry x="170" y="140" width="60" height="30" as="geometry" />
        </mxCell>
        <mxCell id="AH1wI-OAd1k5MtHGwiSd-6" value="" style="rounded=0;whiteSpace=wrap;html=1;dashed=1;fillColor=none;strokeColor=#6c8ebf;movable=0;resizable=0;rotatable=0;deletable=0;editable=0;locked=1;connectable=0;" vertex="1" parent="AH1wI-OAd1k5MtHGwiSd-1">
          <mxGeometry x="170" y="120" width="240" height="580" as="geometry" />
        </mxCell>
        <mxCell id="AH1wI-OAd1k5MtHGwiSd-7" value="&lt;font style=&quot;font-size: 9px;&quot;&gt;Availability Zone 1&lt;/font&gt;" style="text;html=1;align=center;verticalAlign=middle;whiteSpace=wrap;rounded=0;movable=0;resizable=0;rotatable=0;deletable=0;editable=0;locked=1;connectable=0;" vertex="1" parent="AH1wI-OAd1k5MtHGwiSd-1">
          <mxGeometry x="226" y="110" width="130" height="30" as="geometry" />
        </mxCell>
        <mxCell id="AH1wI-OAd1k5MtHGwiSd-8" value="" style="rounded=0;whiteSpace=wrap;html=1;dashed=1;fillColor=none;strokeColor=#6c8ebf;movable=0;resizable=0;rotatable=0;deletable=0;editable=0;locked=1;connectable=0;" vertex="1" parent="AH1wI-OAd1k5MtHGwiSd-1">
          <mxGeometry x="440" y="120" width="240" height="580" as="geometry" />
        </mxCell>
        <mxCell id="AH1wI-OAd1k5MtHGwiSd-9" value="&lt;font style=&quot;font-size: 9px;&quot;&gt;Availability Zone 2&lt;/font&gt;" style="text;html=1;align=center;verticalAlign=middle;whiteSpace=wrap;rounded=0;movable=0;resizable=0;rotatable=0;deletable=0;editable=0;locked=1;connectable=0;" vertex="1" parent="AH1wI-OAd1k5MtHGwiSd-1">
          <mxGeometry x="494" y="110" width="130" height="30" as="geometry" />
        </mxCell>
        <mxCell id="AH1wI-OAd1k5MtHGwiSd-10" value="" style="group" vertex="1" connectable="0" parent="AH1wI-OAd1k5MtHGwiSd-1">
          <mxGeometry x="150" y="140" width="550" height="550" as="geometry" />
        </mxCell>
        <mxCell id="AH1wI-OAd1k5MtHGwiSd-11" value="" style="whiteSpace=wrap;html=1;aspect=fixed;fillColor=none;strokeColor=#8C4FFF;strokeWidth=2;movable=0;resizable=0;rotatable=0;deletable=0;editable=0;locked=1;connectable=0;" vertex="1" parent="AH1wI-OAd1k5MtHGwiSd-10">
          <mxGeometry width="550" height="550" as="geometry" />
        </mxCell>
        <mxCell id="AH1wI-OAd1k5MtHGwiSd-12" value="Private subnet" style="points=[[0,0],[0.25,0],[0.5,0],[0.75,0],[1,0],[1,0.25],[1,0.5],[1,0.75],[1,1],[0.75,1],[0.5,1],[0.25,1],[0,1],[0,0.75],[0,0.5],[0,0.25]];outlineConnect=0;gradientColor=none;html=1;whiteSpace=wrap;fontSize=12;fontStyle=0;container=1;pointerEvents=0;collapsible=0;recursiveResize=0;shape=mxgraph.aws4.group;grIcon=mxgraph.aws4.group_security_group;grStroke=0;strokeColor=#00A4A6;fillColor=#E6F6F7;verticalAlign=top;align=left;spacingLeft=30;fontColor=#147EBA;dashed=0;" vertex="1" parent="AH1wI-OAd1k5MtHGwiSd-10">
          <mxGeometry x="31" y="55" width="220" height="140" as="geometry" />
        </mxCell>
        <mxCell id="AH1wI-OAd1k5MtHGwiSd-13" value="Private subnet" style="points=[[0,0],[0.25,0],[0.5,0],[0.75,0],[1,0],[1,0.25],[1,0.5],[1,0.75],[1,1],[0.75,1],[0.5,1],[0.25,1],[0,1],[0,0.75],[0,0.5],[0,0.25]];outlineConnect=0;gradientColor=none;html=1;whiteSpace=wrap;fontSize=12;fontStyle=0;container=1;pointerEvents=0;collapsible=0;recursiveResize=0;shape=mxgraph.aws4.group;grIcon=mxgraph.aws4.group_security_group;grStroke=0;strokeColor=#00A4A6;fillColor=#E6F6F7;verticalAlign=top;align=left;spacingLeft=30;fontColor=#147EBA;dashed=0;" vertex="1" parent="AH1wI-OAd1k5MtHGwiSd-10">
          <mxGeometry x="300" y="220" width="220" height="140" as="geometry" />
        </mxCell>
        <mxCell id="AH1wI-OAd1k5MtHGwiSd-14" value="Private subnet" style="points=[[0,0],[0.25,0],[0.5,0],[0.75,0],[1,0],[1,0.25],[1,0.5],[1,0.75],[1,1],[0.75,1],[0.5,1],[0.25,1],[0,1],[0,0.75],[0,0.5],[0,0.25]];outlineConnect=0;gradientColor=none;html=1;whiteSpace=wrap;fontSize=12;fontStyle=0;container=1;pointerEvents=0;collapsible=0;recursiveResize=0;shape=mxgraph.aws4.group;grIcon=mxgraph.aws4.group_security_group;grStroke=0;strokeColor=#00A4A6;fillColor=#E6F6F7;verticalAlign=top;align=left;spacingLeft=30;fontColor=#147EBA;dashed=0;" vertex="1" parent="AH1wI-OAd1k5MtHGwiSd-10">
          <mxGeometry x="300" y="55" width="220" height="140" as="geometry" />
        </mxCell>
        <mxCell id="AH1wI-OAd1k5MtHGwiSd-15" value="Private subnet" style="points=[[0,0],[0.25,0],[0.5,0],[0.75,0],[1,0],[1,0.25],[1,0.5],[1,0.75],[1,1],[0.75,1],[0.5,1],[0.25,1],[0,1],[0,0.75],[0,0.5],[0,0.25]];outlineConnect=0;gradientColor=none;html=1;whiteSpace=wrap;fontSize=12;fontStyle=0;container=1;pointerEvents=0;collapsible=0;recursiveResize=0;shape=mxgraph.aws4.group;grIcon=mxgraph.aws4.group_security_group;grStroke=0;strokeColor=#00A4A6;fillColor=#E6F6F7;verticalAlign=top;align=left;spacingLeft=30;fontColor=#147EBA;dashed=0;" vertex="1" parent="AH1wI-OAd1k5MtHGwiSd-10">
          <mxGeometry x="32" y="220" width="220" height="140" as="geometry" />
        </mxCell>
        <mxCell id="AH1wI-OAd1k5MtHGwiSd-16" style="edgeStyle=orthogonalEdgeStyle;rounded=0;orthogonalLoop=1;jettySize=auto;html=1;" edge="1" parent="AH1wI-OAd1k5MtHGwiSd-10" source="AH1wI-OAd1k5MtHGwiSd-18">
          <mxGeometry relative="1" as="geometry">
            <mxPoint x="161" y="110" as="targetPoint" />
          </mxGeometry>
        </mxCell>
        <mxCell id="AH1wI-OAd1k5MtHGwiSd-17" style="edgeStyle=orthogonalEdgeStyle;rounded=0;orthogonalLoop=1;jettySize=auto;html=1;" edge="1" parent="AH1wI-OAd1k5MtHGwiSd-10" source="AH1wI-OAd1k5MtHGwiSd-18">
          <mxGeometry relative="1" as="geometry">
            <mxPoint x="410.9999999999998" y="110" as="targetPoint" />
          </mxGeometry>
        </mxCell>
        <mxCell id="AH1wI-OAd1k5MtHGwiSd-18" value="" style="sketch=0;outlineConnect=0;fontColor=#232F3E;gradientColor=none;fillColor=#8C4FFF;strokeColor=none;dashed=0;verticalLabelPosition=bottom;verticalAlign=top;align=center;html=1;fontSize=12;fontStyle=0;aspect=fixed;pointerEvents=1;shape=mxgraph.aws4.application_load_balancer;" vertex="1" parent="AH1wI-OAd1k5MtHGwiSd-10">
          <mxGeometry x="260" y="11" width="30" height="30" as="geometry" />
        </mxCell>
        <mxCell id="AH1wI-OAd1k5MtHGwiSd-19" value="&lt;font style=&quot;font-size: 8px;&quot;&gt;ALB&lt;/font&gt;" style="text;html=1;align=center;verticalAlign=middle;whiteSpace=wrap;rounded=0;" vertex="1" parent="AH1wI-OAd1k5MtHGwiSd-10">
          <mxGeometry x="261" y="80" width="30" height="10" as="geometry" />
        </mxCell>
        <mxCell id="AH1wI-OAd1k5MtHGwiSd-20" value="" style="sketch=0;points=[[0,0,0],[0.25,0,0],[0.5,0,0],[0.75,0,0],[1,0,0],[0,1,0],[0.25,1,0],[0.5,1,0],[0.75,1,0],[1,1,0],[0,0.25,0],[0,0.5,0],[0,0.75,0],[1,0.25,0],[1,0.5,0],[1,0.75,0]];outlineConnect=0;fontColor=#232F3E;fillColor=#ED7100;strokeColor=#ffffff;dashed=0;verticalLabelPosition=bottom;verticalAlign=top;align=center;html=1;fontSize=12;fontStyle=0;aspect=fixed;shape=mxgraph.aws4.resourceIcon;resIcon=mxgraph.aws4.fargate;" vertex="1" parent="AH1wI-OAd1k5MtHGwiSd-10">
          <mxGeometry x="121" y="120" width="30" height="30" as="geometry" />
        </mxCell>
        <mxCell id="AH1wI-OAd1k5MtHGwiSd-21" value="" style="sketch=0;points=[[0,0,0],[0.25,0,0],[0.5,0,0],[0.75,0,0],[1,0,0],[0,1,0],[0.25,1,0],[0.5,1,0],[0.75,1,0],[1,1,0],[0,0.25,0],[0,0.5,0],[0,0.75,0],[1,0.25,0],[1,0.5,0],[1,0.75,0]];outlineConnect=0;fontColor=#232F3E;fillColor=#ED7100;strokeColor=#ffffff;dashed=0;verticalLabelPosition=bottom;verticalAlign=top;align=center;html=1;fontSize=12;fontStyle=0;aspect=fixed;shape=mxgraph.aws4.resourceIcon;resIcon=mxgraph.aws4.fargate;" vertex="1" parent="AH1wI-OAd1k5MtHGwiSd-10">
          <mxGeometry x="396" y="120" width="30" height="30" as="geometry" />
        </mxCell>
        <mxCell id="AH1wI-OAd1k5MtHGwiSd-22" value="&lt;font style=&quot;font-size: 7px;&quot;&gt;ECS Fargate Backend&lt;/font&gt;" style="text;html=1;align=center;verticalAlign=middle;whiteSpace=wrap;rounded=0;" vertex="1" parent="AH1wI-OAd1k5MtHGwiSd-10">
          <mxGeometry x="107" y="146" width="60" height="30" as="geometry" />
        </mxCell>
        <mxCell id="AH1wI-OAd1k5MtHGwiSd-23" value="&lt;font style=&quot;font-size: 7px;&quot;&gt;ECS Fargate Backend&lt;/font&gt;" style="text;html=1;align=center;verticalAlign=middle;whiteSpace=wrap;rounded=0;" vertex="1" parent="AH1wI-OAd1k5MtHGwiSd-10">
          <mxGeometry x="380" y="146" width="60" height="30" as="geometry" />
        </mxCell>
        <mxCell id="AH1wI-OAd1k5MtHGwiSd-24" value="&lt;font style=&quot;font-size: 7px;&quot;&gt;Auto Scaling group&lt;/font&gt;" style="points=[[0,0],[0.25,0],[0.5,0],[0.75,0],[1,0],[1,0.25],[1,0.5],[1,0.75],[1,1],[0.75,1],[0.5,1],[0.25,1],[0,1],[0,0.75],[0,0.5],[0,0.25]];outlineConnect=0;gradientColor=none;html=1;whiteSpace=wrap;fontSize=12;fontStyle=0;container=1;pointerEvents=0;collapsible=0;recursiveResize=0;shape=mxgraph.aws4.groupCenter;grIcon=mxgraph.aws4.group_auto_scaling_group;grStroke=1;strokeColor=#D86613;fillColor=none;verticalAlign=top;align=center;fontColor=#D86613;dashed=1;spacingTop=25;" vertex="1" parent="AH1wI-OAd1k5MtHGwiSd-10">
          <mxGeometry x="71" y="110" width="410" height="70" as="geometry" />
        </mxCell>
        <mxCell id="AH1wI-OAd1k5MtHGwiSd-25" value="" style="sketch=0;points=[[0,0,0],[0.25,0,0],[0.5,0,0],[0.75,0,0],[1,0,0],[0,1,0],[0.25,1,0],[0.5,1,0],[0.75,1,0],[1,1,0],[0,0.25,0],[0,0.5,0],[0,0.75,0],[1,0.25,0],[1,0.5,0],[1,0.75,0]];outlineConnect=0;fontColor=#232F3E;fillColor=#C925D1;strokeColor=#ffffff;dashed=0;verticalLabelPosition=bottom;verticalAlign=top;align=center;html=1;fontSize=12;fontStyle=0;aspect=fixed;shape=mxgraph.aws4.resourceIcon;resIcon=mxgraph.aws4.rds;" vertex="1" parent="AH1wI-OAd1k5MtHGwiSd-10">
          <mxGeometry x="117" y="270" width="40" height="40" as="geometry" />
        </mxCell>
        <mxCell id="AH1wI-OAd1k5MtHGwiSd-26" value="" style="sketch=0;points=[[0,0,0],[0.25,0,0],[0.5,0,0],[0.75,0,0],[1,0,0],[0,1,0],[0.25,1,0],[0.5,1,0],[0.75,1,0],[1,1,0],[0,0.25,0],[0,0.5,0],[0,0.75,0],[1,0.25,0],[1,0.5,0],[1,0.75,0]];outlineConnect=0;fontColor=#232F3E;fillColor=#C925D1;strokeColor=#ffffff;dashed=0;verticalLabelPosition=bottom;verticalAlign=top;align=center;html=1;fontSize=12;fontStyle=0;aspect=fixed;shape=mxgraph.aws4.resourceIcon;resIcon=mxgraph.aws4.rds;" vertex="1" parent="AH1wI-OAd1k5MtHGwiSd-10">
          <mxGeometry x="391" y="270" width="40" height="40" as="geometry" />
        </mxCell>
        <mxCell id="AH1wI-OAd1k5MtHGwiSd-27" value="&lt;font style=&quot;font-size: 10px;&quot;&gt;RDS&lt;/font&gt;&lt;div style=&quot;font-size: 10px;&quot;&gt;&lt;font style=&quot;font-size: 10px;&quot;&gt;primary&lt;/font&gt;&lt;/div&gt;" style="text;html=1;align=center;verticalAlign=middle;whiteSpace=wrap;rounded=0;" vertex="1" parent="AH1wI-OAd1k5MtHGwiSd-10">
          <mxGeometry x="104" y="300" width="64" height="40" as="geometry" />
        </mxCell>
        <mxCell id="AH1wI-OAd1k5MtHGwiSd-28" value="&lt;font style=&quot;font-size: 10px;&quot;&gt;RDS&lt;/font&gt;&lt;div style=&quot;font-size: 10px;&quot;&gt;&lt;font style=&quot;font-size: 10px;&quot;&gt;standby&lt;/font&gt;&lt;/div&gt;" style="text;html=1;align=center;verticalAlign=middle;whiteSpace=wrap;rounded=0;" vertex="1" parent="AH1wI-OAd1k5MtHGwiSd-10">
          <mxGeometry x="378" y="300" width="64" height="40" as="geometry" />
        </mxCell>
        <mxCell id="AH1wI-OAd1k5MtHGwiSd-29" value="" style="rounded=1;arcSize=10;dashed=1;strokeColor=#ff0000;fillColor=none;gradientColor=none;dashPattern=8 4;strokeWidth=2;" vertex="1" parent="AH1wI-OAd1k5MtHGwiSd-10">
          <mxGeometry x="57" y="45" width="444" height="160" as="geometry" />
        </mxCell>
        <mxCell id="AH1wI-OAd1k5MtHGwiSd-30" value="" style="rounded=1;arcSize=10;dashed=1;strokeColor=#ff0000;fillColor=none;gradientColor=none;dashPattern=8 4;strokeWidth=2;" vertex="1" parent="AH1wI-OAd1k5MtHGwiSd-10">
          <mxGeometry x="57" y="210" width="444" height="160" as="geometry" />
        </mxCell>
        <mxCell id="bHjSSPNl44PEYlqtmkhl-2" value="3" style="rounded=1;whiteSpace=wrap;html=1;fillColor=#007CBD;strokeColor=none;fontColor=#FFFFFF;fontStyle=1;fontSize=22;" vertex="1" parent="AH1wI-OAd1k5MtHGwiSd-10">
          <mxGeometry x="167" y="120" width="23" height="24" as="geometry" />
        </mxCell>
        <mxCell id="bHjSSPNl44PEYlqtmkhl-3" value="4" style="rounded=1;whiteSpace=wrap;html=1;fillColor=#007CBD;strokeColor=none;fontColor=#FFFFFF;fontStyle=1;fontSize=22;" vertex="1" parent="AH1wI-OAd1k5MtHGwiSd-10">
          <mxGeometry x="167" y="240" width="33" height="30" as="geometry" />
        </mxCell>
        <mxCell id="AH1wI-OAd1k5MtHGwiSd-31" value="" style="rounded=0;whiteSpace=wrap;html=1;fillColor=none;fontColor=#333333;strokeColor=#666666;" vertex="1" parent="AH1wI-OAd1k5MtHGwiSd-1">
          <mxGeometry x="365" y="-50" width="120" height="60" as="geometry" />
        </mxCell>
        <mxCell id="AH1wI-OAd1k5MtHGwiSd-32" value="" style="verticalLabelPosition=bottom;sketch=0;html=1;fillColor=#282828;strokeColor=none;verticalAlign=top;pointerEvents=1;align=center;shape=mxgraph.cisco_safe.people_places_things_icons.icon1;" vertex="1" parent="AH1wI-OAd1k5MtHGwiSd-1">
          <mxGeometry x="374" y="-30" width="21" height="20" as="geometry" />
        </mxCell>
        <mxCell id="AH1wI-OAd1k5MtHGwiSd-33" value="" style="verticalLabelPosition=bottom;verticalAlign=top;html=1;shadow=0;dashed=0;strokeWidth=1;shape=mxgraph.android.phone2;strokeColor=#c0c0c0;" vertex="1" parent="AH1wI-OAd1k5MtHGwiSd-1">
          <mxGeometry x="405" y="-34" width="19" height="30" as="geometry" />
        </mxCell>
        <mxCell id="AH1wI-OAd1k5MtHGwiSd-34" value="" style="fontColor=#0066CC;verticalAlign=top;verticalLabelPosition=bottom;labelPosition=center;align=center;html=1;outlineConnect=0;fillColor=#CCCCCC;strokeColor=#6881B3;gradientColor=none;gradientDirection=north;strokeWidth=2;shape=mxgraph.networks.pc;" vertex="1" parent="AH1wI-OAd1k5MtHGwiSd-1">
          <mxGeometry x="440" y="-37" width="41" height="34" as="geometry" />
        </mxCell>
        <mxCell id="AH1wI-OAd1k5MtHGwiSd-35" style="edgeStyle=orthogonalEdgeStyle;rounded=0;orthogonalLoop=1;jettySize=auto;html=1;exitX=0.5;exitY=0;exitDx=0;exitDy=0;exitPerimeter=0;entryX=0.5;entryY=1;entryDx=0;entryDy=0;startArrow=classicThin;startFill=1;" edge="1" parent="AH1wI-OAd1k5MtHGwiSd-1" target="AH1wI-OAd1k5MtHGwiSd-31">
          <mxGeometry relative="1" as="geometry">
            <mxPoint x="425" y="81.99999999999977" as="sourcePoint" />
          </mxGeometry>
        </mxCell>
        <mxCell id="AH1wI-OAd1k5MtHGwiSd-36" value="&lt;font style=&quot;font-size: 9px;&quot;&gt;CloudFront&lt;/font&gt;" style="text;html=1;align=center;verticalAlign=middle;whiteSpace=wrap;rounded=0;" vertex="1" parent="AH1wI-OAd1k5MtHGwiSd-1">
          <mxGeometry x="395" y="100" width="60" height="30" as="geometry" />
        </mxCell>
        <mxCell id="AH1wI-OAd1k5MtHGwiSd-37" value="&lt;font style=&quot;font-size: 10px;&quot;&gt;Web Customers&lt;/font&gt;" style="text;html=1;align=center;verticalAlign=middle;whiteSpace=wrap;rounded=0;" vertex="1" parent="AH1wI-OAd1k5MtHGwiSd-1">
          <mxGeometry x="340" y="-60" width="124" height="30" as="geometry" />
        </mxCell>
        <mxCell id="AH1wI-OAd1k5MtHGwiSd-38" value="" style="sketch=0;points=[[0,0,0],[0.25,0,0],[0.5,0,0],[0.75,0,0],[1,0,0],[0,1,0],[0.25,1,0],[0.5,1,0],[0.75,1,0],[1,1,0],[0,0.25,0],[0,0.5,0],[0,0.75,0],[1,0.25,0],[1,0.5,0],[1,0.75,0]];outlineConnect=0;fontColor=#232F3E;fillColor=#8C4FFF;strokeColor=#ffffff;dashed=0;verticalLabelPosition=bottom;verticalAlign=top;align=center;html=1;fontSize=12;fontStyle=0;aspect=fixed;shape=mxgraph.aws4.resourceIcon;resIcon=mxgraph.aws4.route_53;" vertex="1" parent="AH1wI-OAd1k5MtHGwiSd-1">
          <mxGeometry x="78" y="430" width="28" height="28" as="geometry" />
        </mxCell>
        <mxCell id="AH1wI-OAd1k5MtHGwiSd-39" value="" style="sketch=0;outlineConnect=0;fontColor=#232F3E;gradientColor=none;fillColor=#ED7100;strokeColor=none;dashed=0;verticalLabelPosition=bottom;verticalAlign=top;align=center;html=1;fontSize=12;fontStyle=0;aspect=fixed;pointerEvents=1;shape=mxgraph.aws4.registry;" vertex="1" parent="AH1wI-OAd1k5MtHGwiSd-1">
          <mxGeometry x="78" y="500" width="30" height="30" as="geometry" />
        </mxCell>
        <mxCell id="AH1wI-OAd1k5MtHGwiSd-40" value="" style="sketch=0;points=[[0,0,0],[0.25,0,0],[0.5,0,0],[0.75,0,0],[1,0,0],[0,1,0],[0.25,1,0],[0.5,1,0],[0.75,1,0],[1,1,0],[0,0.25,0],[0,0.5,0],[0,0.75,0],[1,0.25,0],[1,0.5,0],[1,0.75,0]];outlineConnect=0;fontColor=#232F3E;fillColor=#7AA116;strokeColor=#ffffff;dashed=0;verticalLabelPosition=bottom;verticalAlign=top;align=center;html=1;fontSize=12;fontStyle=0;aspect=fixed;shape=mxgraph.aws4.resourceIcon;resIcon=mxgraph.aws4.s3;" vertex="1" parent="AH1wI-OAd1k5MtHGwiSd-1">
          <mxGeometry x="78" y="350" width="30" height="30" as="geometry" />
        </mxCell>
        <mxCell id="AH1wI-OAd1k5MtHGwiSd-41" value="" style="sketch=0;points=[[0,0,0],[0.25,0,0],[0.5,0,0],[0.75,0,0],[1,0,0],[0,1,0],[0.25,1,0],[0.5,1,0],[0.75,1,0],[1,1,0],[0,0.25,0],[0,0.5,0],[0,0.75,0],[1,0.25,0],[1,0.5,0],[1,0.75,0]];outlineConnect=0;fontColor=#232F3E;fillColor=#8C4FFF;strokeColor=#ffffff;dashed=0;verticalLabelPosition=bottom;verticalAlign=top;align=center;html=1;fontSize=12;fontStyle=0;aspect=fixed;shape=mxgraph.aws4.resourceIcon;resIcon=mxgraph.aws4.cloudfront;" vertex="1" parent="AH1wI-OAd1k5MtHGwiSd-1">
          <mxGeometry x="410" y="80" width="30" height="30" as="geometry" />
        </mxCell>
        <mxCell id="AH1wI-OAd1k5MtHGwiSd-42" value="&lt;font style=&quot;font-size: 10px;&quot;&gt;S3 Database Backups&lt;/font&gt;" style="text;html=1;align=center;verticalAlign=middle;whiteSpace=wrap;rounded=0;" vertex="1" parent="AH1wI-OAd1k5MtHGwiSd-1">
          <mxGeometry x="62" y="380" width="60" height="30" as="geometry" />
        </mxCell>
        <mxCell id="AH1wI-OAd1k5MtHGwiSd-43" value="&lt;font style=&quot;font-size: 10px;&quot;&gt;Route 53&lt;/font&gt;" style="text;html=1;align=center;verticalAlign=middle;whiteSpace=wrap;rounded=0;" vertex="1" parent="AH1wI-OAd1k5MtHGwiSd-1">
          <mxGeometry x="64" y="455" width="60" height="30" as="geometry" />
        </mxCell>
        <mxCell id="AH1wI-OAd1k5MtHGwiSd-44" value="&lt;font style=&quot;font-size: 10px;&quot;&gt;Container Registry&lt;/font&gt;" style="text;html=1;align=center;verticalAlign=middle;whiteSpace=wrap;rounded=0;" vertex="1" parent="AH1wI-OAd1k5MtHGwiSd-1">
          <mxGeometry x="63" y="530" width="60" height="30" as="geometry" />
        </mxCell>
        <mxCell id="AH1wI-OAd1k5MtHGwiSd-45" value="" style="sketch=0;points=[[0,0,0],[0.25,0,0],[0.5,0,0],[0.75,0,0],[1,0,0],[0,1,0],[0.25,1,0],[0.5,1,0],[0.75,1,0],[1,1,0],[0,0.25,0],[0,0.5,0],[0,0.75,0],[1,0.25,0],[1,0.5,0],[1,0.75,0]];outlineConnect=0;fontColor=#232F3E;fillColor=#DD344C;strokeColor=#ffffff;dashed=0;verticalLabelPosition=bottom;verticalAlign=top;align=center;html=1;fontSize=12;fontStyle=0;aspect=fixed;shape=mxgraph.aws4.resourceIcon;resIcon=mxgraph.aws4.identity_and_access_management;" vertex="1" parent="AH1wI-OAd1k5MtHGwiSd-1">
          <mxGeometry x="729" y="120" width="54" height="54" as="geometry" />
        </mxCell>
        <mxCell id="AH1wI-OAd1k5MtHGwiSd-46" value="" style="sketch=0;points=[[0,0,0],[0.25,0,0],[0.5,0,0],[0.75,0,0],[1,0,0],[0,1,0],[0.25,1,0],[0.5,1,0],[0.75,1,0],[1,1,0],[0,0.25,0],[0,0.5,0],[0,0.75,0],[1,0.25,0],[1,0.5,0],[1,0.75,0]];outlineConnect=0;fontColor=#232F3E;fillColor=#DD344C;strokeColor=#ffffff;dashed=0;verticalLabelPosition=bottom;verticalAlign=top;align=center;html=1;fontSize=12;fontStyle=0;aspect=fixed;shape=mxgraph.aws4.resourceIcon;resIcon=mxgraph.aws4.key_management_service;" vertex="1" parent="AH1wI-OAd1k5MtHGwiSd-1">
          <mxGeometry x="728" y="200" width="56" height="56" as="geometry" />
        </mxCell>
        <mxCell id="AH1wI-OAd1k5MtHGwiSd-47" value="" style="sketch=0;points=[[0,0,0],[0.25,0,0],[0.5,0,0],[0.75,0,0],[1,0,0],[0,1,0],[0.25,1,0],[0.5,1,0],[0.75,1,0],[1,1,0],[0,0.25,0],[0,0.5,0],[0,0.75,0],[1,0.25,0],[1,0.5,0],[1,0.75,0]];points=[[0,0,0],[0.25,0,0],[0.5,0,0],[0.75,0,0],[1,0,0],[0,1,0],[0.25,1,0],[0.5,1,0],[0.75,1,0],[1,1,0],[0,0.25,0],[0,0.5,0],[0,0.75,0],[1,0.25,0],[1,0.5,0],[1,0.75,0]];outlineConnect=0;fontColor=#232F3E;fillColor=#E7157B;strokeColor=#ffffff;dashed=0;verticalLabelPosition=bottom;verticalAlign=top;align=center;html=1;fontSize=12;fontStyle=0;aspect=fixed;shape=mxgraph.aws4.resourceIcon;resIcon=mxgraph.aws4.cloudtrail;" vertex="1" parent="AH1wI-OAd1k5MtHGwiSd-1">
          <mxGeometry x="728" y="395" width="60" height="60" as="geometry" />
        </mxCell>
        <mxCell id="AH1wI-OAd1k5MtHGwiSd-48" value="" style="sketch=0;points=[[0,0,0],[0.25,0,0],[0.5,0,0],[0.75,0,0],[1,0,0],[0,1,0],[0.25,1,0],[0.5,1,0],[0.75,1,0],[1,1,0],[0,0.25,0],[0,0.5,0],[0,0.75,0],[1,0.25,0],[1,0.5,0],[1,0.75,0]];points=[[0,0,0],[0.25,0,0],[0.5,0,0],[0.75,0,0],[1,0,0],[0,1,0],[0.25,1,0],[0.5,1,0],[0.75,1,0],[1,1,0],[0,0.25,0],[0,0.5,0],[0,0.75,0],[1,0.25,0],[1,0.5,0],[1,0.75,0]];outlineConnect=0;fontColor=#232F3E;fillColor=#E7157B;strokeColor=#ffffff;dashed=0;verticalLabelPosition=bottom;verticalAlign=top;align=center;html=1;fontSize=12;fontStyle=0;aspect=fixed;shape=mxgraph.aws4.resourceIcon;resIcon=mxgraph.aws4.cloudwatch_2;" vertex="1" parent="AH1wI-OAd1k5MtHGwiSd-1">
          <mxGeometry x="726" y="480" width="60" height="60" as="geometry" />
        </mxCell>
        <mxCell id="AH1wI-OAd1k5MtHGwiSd-49" value="&lt;font style=&quot;font-size: 10px;&quot;&gt;IAM&lt;/font&gt;" style="text;html=1;align=center;verticalAlign=middle;whiteSpace=wrap;rounded=0;" vertex="1" parent="AH1wI-OAd1k5MtHGwiSd-1">
          <mxGeometry x="727" y="170" width="60" height="30" as="geometry" />
        </mxCell>
        <mxCell id="AH1wI-OAd1k5MtHGwiSd-50" value="" style="sketch=0;points=[[0,0,0],[0.25,0,0],[0.5,0,0],[0.75,0,0],[1,0,0],[0,1,0],[0.25,1,0],[0.5,1,0],[0.75,1,0],[1,1,0],[0,0.25,0],[0,0.5,0],[0,0.75,0],[1,0.25,0],[1,0.5,0],[1,0.75,0]];outlineConnect=0;fontColor=#232F3E;fillColor=#DD344C;strokeColor=#ffffff;dashed=0;verticalLabelPosition=bottom;verticalAlign=top;align=center;html=1;fontSize=12;fontStyle=0;aspect=fixed;shape=mxgraph.aws4.resourceIcon;resIcon=mxgraph.aws4.certificate_manager_3;" vertex="1" parent="AH1wI-OAd1k5MtHGwiSd-1">
          <mxGeometry x="726" y="296" width="60" height="60" as="geometry" />
        </mxCell>
        <mxCell id="AH1wI-OAd1k5MtHGwiSd-51" value="&lt;font style=&quot;font-size: 10px;&quot;&gt;Key Management&lt;/font&gt;" style="text;html=1;align=center;verticalAlign=middle;whiteSpace=wrap;rounded=0;" vertex="1" parent="AH1wI-OAd1k5MtHGwiSd-1">
          <mxGeometry x="727" y="256" width="60" height="30" as="geometry" />
        </mxCell>
        <mxCell id="AH1wI-OAd1k5MtHGwiSd-52" value="Certificate Manager" style="text;html=1;align=center;verticalAlign=middle;whiteSpace=wrap;rounded=0;" vertex="1" parent="AH1wI-OAd1k5MtHGwiSd-1">
          <mxGeometry x="728" y="356" width="60" height="30" as="geometry" />
        </mxCell>
        <mxCell id="AH1wI-OAd1k5MtHGwiSd-53" value="&lt;font style=&quot;font-size: 10px;&quot;&gt;CloudTrail&lt;/font&gt;" style="text;html=1;align=center;verticalAlign=middle;whiteSpace=wrap;rounded=0;" vertex="1" parent="AH1wI-OAd1k5MtHGwiSd-1">
          <mxGeometry x="729" y="450" width="60" height="30" as="geometry" />
        </mxCell>
        <mxCell id="AH1wI-OAd1k5MtHGwiSd-54" value="&lt;font style=&quot;font-size: 10px;&quot;&gt;CloudWatch&lt;/font&gt;" style="text;html=1;align=center;verticalAlign=middle;whiteSpace=wrap;rounded=0;" vertex="1" parent="AH1wI-OAd1k5MtHGwiSd-1">
          <mxGeometry x="728" y="535" width="60" height="30" as="geometry" />
        </mxCell>
        <mxCell id="AH1wI-OAd1k5MtHGwiSd-55" style="edgeStyle=orthogonalEdgeStyle;rounded=0;orthogonalLoop=1;jettySize=auto;html=1;entryX=0.5;entryY=0;entryDx=0;entryDy=0;entryPerimeter=0;" edge="1" parent="AH1wI-OAd1k5MtHGwiSd-1" source="AH1wI-OAd1k5MtHGwiSd-36" target="AH1wI-OAd1k5MtHGwiSd-56">
          <mxGeometry relative="1" as="geometry" />
        </mxCell>
        <mxCell id="AH1wI-OAd1k5MtHGwiSd-56" value="" style="sketch=0;points=[[0,0,0],[0.25,0,0],[0.5,0,0],[0.75,0,0],[1,0,0],[0,1,0],[0.25,1,0],[0.5,1,0],[0.75,1,0],[1,1,0],[0,0.25,0],[0,0.5,0],[0,0.75,0],[1,0.25,0],[1,0.5,0],[1,0.75,0]];outlineConnect=0;fontColor=#232F3E;fillColor=#7AA116;strokeColor=#ffffff;dashed=0;verticalLabelPosition=bottom;verticalAlign=top;align=center;html=1;fontSize=12;fontStyle=0;aspect=fixed;shape=mxgraph.aws4.resourceIcon;resIcon=mxgraph.aws4.s3;" vertex="1" parent="AH1wI-OAd1k5MtHGwiSd-1">
          <mxGeometry x="70" y="200" width="50" height="50" as="geometry" />
        </mxCell>
        <mxCell id="AH1wI-OAd1k5MtHGwiSd-57" value="&lt;font style=&quot;font-size: 10px;&quot;&gt;S3 Static content&lt;/font&gt;" style="text;html=1;align=center;verticalAlign=middle;whiteSpace=wrap;rounded=0;" vertex="1" parent="AH1wI-OAd1k5MtHGwiSd-1">
          <mxGeometry x="70" y="260" width="60" height="30" as="geometry" />
        </mxCell>
        <mxCell id="j1pXVIU7Cxo1gCFwayRz-0" value="" style="rounded=0;whiteSpace=wrap;html=1;fillColor=#EAEDED;fontSize=22;fontColor=#FFFFFF;strokeColor=none;labelBackgroundColor=none;" vertex="1" parent="AH1wI-OAd1k5MtHGwiSd-1">
          <mxGeometry x="850" y="49" width="539" height="969" as="geometry" />
        </mxCell>
        <mxCell id="j1pXVIU7Cxo1gCFwayRz-1" value="1" style="rounded=1;whiteSpace=wrap;html=1;fillColor=#007CBD;strokeColor=none;fontColor=#FFFFFF;fontStyle=1;fontSize=22;labelBackgroundColor=none;" vertex="1" parent="AH1wI-OAd1k5MtHGwiSd-1">
          <mxGeometry x="868" y="61" width="40" height="38" as="geometry" />
        </mxCell>
        <mxCell id="j1pXVIU7Cxo1gCFwayRz-2" value="2" style="rounded=1;whiteSpace=wrap;html=1;fillColor=#007CBD;strokeColor=none;fontColor=#FFFFFF;fontStyle=1;fontSize=22;labelBackgroundColor=none;" vertex="1" parent="AH1wI-OAd1k5MtHGwiSd-1">
          <mxGeometry x="866.5" y="183" width="40" height="38" as="geometry" />
        </mxCell>
        <mxCell id="j1pXVIU7Cxo1gCFwayRz-3" value="3" style="rounded=1;whiteSpace=wrap;html=1;fillColor=#007CBD;strokeColor=none;fontColor=#FFFFFF;fontStyle=1;fontSize=22;labelBackgroundColor=none;" vertex="1" parent="AH1wI-OAd1k5MtHGwiSd-1">
          <mxGeometry x="866.5" y="303" width="40" height="38" as="geometry" />
        </mxCell>
        <mxCell id="j1pXVIU7Cxo1gCFwayRz-4" value="4" style="rounded=1;whiteSpace=wrap;html=1;fillColor=#007CBD;strokeColor=none;fontColor=#FFFFFF;fontStyle=1;fontSize=22;labelBackgroundColor=none;" vertex="1" parent="AH1wI-OAd1k5MtHGwiSd-1">
          <mxGeometry x="866.5" y="417" width="40" height="38" as="geometry" />
        </mxCell>
        <mxCell id="j1pXVIU7Cxo1gCFwayRz-5" value="5" style="rounded=1;whiteSpace=wrap;html=1;fillColor=#007CBD;strokeColor=none;fontColor=#FFFFFF;fontStyle=1;fontSize=22;labelBackgroundColor=none;" vertex="1" parent="AH1wI-OAd1k5MtHGwiSd-1">
          <mxGeometry x="868" y="534" width="40" height="38" as="geometry" />
        </mxCell>
        <mxCell id="j1pXVIU7Cxo1gCFwayRz-6" value="6" style="rounded=1;whiteSpace=wrap;html=1;fillColor=#007CBD;strokeColor=none;fontColor=#FFFFFF;fontStyle=1;fontSize=22;labelBackgroundColor=none;" vertex="1" parent="AH1wI-OAd1k5MtHGwiSd-1">
          <mxGeometry x="869" y="649" width="40" height="38" as="geometry" />
        </mxCell>
        <mxCell id="j1pXVIU7Cxo1gCFwayRz-7" value="7" style="rounded=1;whiteSpace=wrap;html=1;fillColor=#007CBD;strokeColor=none;fontColor=#FFFFFF;fontStyle=1;fontSize=22;labelBackgroundColor=none;" vertex="1" parent="AH1wI-OAd1k5MtHGwiSd-1">
          <mxGeometry x="868.5" y="765" width="40" height="38" as="geometry" />
        </mxCell>
        <mxCell id="j1pXVIU7Cxo1gCFwayRz-8" value="8" style="rounded=1;whiteSpace=wrap;html=1;fillColor=#007CBD;strokeColor=none;fontColor=#FFFFFF;fontStyle=1;fontSize=22;labelBackgroundColor=none;" vertex="1" parent="AH1wI-OAd1k5MtHGwiSd-1">
          <mxGeometry x="869" y="883" width="40" height="38" as="geometry" />
        </mxCell>
        <mxCell id="j1pXVIU7Cxo1gCFwayRz-9" value="CDN que nos permitira exponer el contenido estatico de nuestro frontend de una forma global, eficiente, segura y optimizando costos." style="text;html=1;align=left;verticalAlign=top;spacingTop=-4;fontSize=14;labelBackgroundColor=none;whiteSpace=wrap;" vertex="1" parent="AH1wI-OAd1k5MtHGwiSd-1">
          <mxGeometry x="919.5" y="60.5" width="449" height="118" as="geometry" />
        </mxCell>
        <mxCell id="j1pXVIU7Cxo1gCFwayRz-10" value="Bucket donde se almacenara el contenido estático de nuestro frontend. Este estará restringido por políticas de IAM para mejorar su seguridad y tendrá un ciclo de vida definido para optimizar costos y versionado para protegerse de cambios indeseados y poder hacer rollback en caso de ser necesario." style="text;html=1;align=left;verticalAlign=top;spacingTop=-4;fontSize=14;labelBackgroundColor=none;whiteSpace=wrap;" vertex="1" parent="AH1wI-OAd1k5MtHGwiSd-1">
          <mxGeometry x="918.5" y="183.5" width="450" height="115" as="geometry" />
        </mxCell>
        <mxCell id="j1pXVIU7Cxo1gCFwayRz-11" value="&lt;span&gt;Application Load Balancer en el backend balanceando todo el trafico que llega desde el frontend, este lo distribuye entre todas las instancias de ECS de backend existentes y agrega una capa de seguridad de los datos en transito.&lt;/span&gt;" style="text;html=1;align=left;verticalAlign=top;spacingTop=-4;fontSize=14;labelBackgroundColor=none;whiteSpace=wrap;" vertex="1" parent="AH1wI-OAd1k5MtHGwiSd-1">
          <mxGeometry x="918.5" y="301.5" width="450" height="117" as="geometry" />
        </mxCell>
        <mxCell id="j1pXVIU7Cxo1gCFwayRz-12" value="&lt;span&gt;Base de datos RDS con Mysql la cual solo será accesible desde el backend. Cuenta con una replica de alta disponibilidad en otra zona de disponibilidad en caso de fallos. Adicionalmente respaldos automatizados en el bucket de S3.&lt;/span&gt;" style="text;html=1;align=left;verticalAlign=top;spacingTop=-4;fontSize=14;labelBackgroundColor=none;whiteSpace=wrap;" vertex="1" parent="AH1wI-OAd1k5MtHGwiSd-1">
          <mxGeometry x="918.5" y="417.5" width="450" height="121" as="geometry" />
        </mxCell>
        <mxCell id="j1pXVIU7Cxo1gCFwayRz-13" value="S3 buckets que nos permiten almacenar los respaldos de nuestras bases de datos de forma segura." style="text;html=1;align=left;verticalAlign=top;spacingTop=-4;fontSize=14;labelBackgroundColor=none;whiteSpace=wrap;" vertex="1" parent="AH1wI-OAd1k5MtHGwiSd-1">
          <mxGeometry x="919.5" y="534.5" width="449" height="114" as="geometry" />
        </mxCell>
        <mxCell id="j1pXVIU7Cxo1gCFwayRz-14" value="&lt;span&gt;Container registry donde se almacenarán las imágenes de los contenedores desplegados en las instancias ECS, de tal forma que pueda ser recuperable rápidamente en caso de algún falló.&lt;/span&gt;" style="text;html=1;align=left;verticalAlign=top;spacingTop=-4;fontSize=14;labelBackgroundColor=none;whiteSpace=wrap;" vertex="1" parent="AH1wI-OAd1k5MtHGwiSd-1">
          <mxGeometry x="919.5" y="650.5" width="450" height="118" as="geometry" />
        </mxCell>
        <mxCell id="j1pXVIU7Cxo1gCFwayRz-15" value="&lt;span&gt;Capas de seguridad usadas para robuster nuestro diseño:&lt;/span&gt;&lt;br&gt;&lt;div&gt;&lt;span&gt;IAM para definir el minimo privilegio necesario en los recursos utilizados.&lt;/span&gt;&lt;/div&gt;&lt;div&gt;&lt;span&gt;Key Management para almacenar los secretos que puedan necesitar nuestras aplicaciones.&lt;/span&gt;&lt;/div&gt;&lt;div&gt;&lt;span&gt;Certificate Manager para crear los certificados TLS que nos permitan encriptar los request http(data en transito)&lt;/span&gt;&lt;/div&gt;" style="text;html=1;align=left;verticalAlign=top;spacingTop=-4;fontSize=14;labelBackgroundColor=none;whiteSpace=wrap;" vertex="1" parent="AH1wI-OAd1k5MtHGwiSd-1">
          <mxGeometry x="919.5" y="765.5" width="449" height="113" as="geometry" />
        </mxCell>
        <mxCell id="j1pXVIU7Cxo1gCFwayRz-16" value="&lt;span&gt;Herramientas para hacer todo el monitoreo de nuestra infraestructura, conocer el estado de recursos, escalamiento, trafico y accesos de cuentas o usuarios.&lt;/span&gt;" style="text;html=1;align=left;verticalAlign=top;spacingTop=-4;fontSize=14;labelBackgroundColor=none;whiteSpace=wrap;" vertex="1" parent="AH1wI-OAd1k5MtHGwiSd-1">
          <mxGeometry x="919.5" y="884.5" width="449" height="124" as="geometry" />
        </mxCell>
        <mxCell id="bHjSSPNl44PEYlqtmkhl-0" value="1" style="rounded=1;whiteSpace=wrap;html=1;fillColor=#007CBD;strokeColor=none;fontColor=#FFFFFF;fontStyle=1;fontSize=22;" vertex="1" parent="AH1wI-OAd1k5MtHGwiSd-1">
          <mxGeometry x="374" y="65.25" width="25" height="29.5" as="geometry" />
        </mxCell>
        <mxCell id="bHjSSPNl44PEYlqtmkhl-4" value="5" style="rounded=1;whiteSpace=wrap;html=1;fillColor=#007CBD;strokeColor=none;fontColor=#FFFFFF;fontStyle=1;fontSize=22;" vertex="1" parent="AH1wI-OAd1k5MtHGwiSd-1">
          <mxGeometry x="40" y="321.5" width="30" height="28.5" as="geometry" />
        </mxCell>
        <mxCell id="bHjSSPNl44PEYlqtmkhl-5" value="6" style="rounded=1;whiteSpace=wrap;html=1;fillColor=#007CBD;strokeColor=none;fontColor=#FFFFFF;fontStyle=1;fontSize=22;" vertex="1" parent="AH1wI-OAd1k5MtHGwiSd-1">
          <mxGeometry x="48" y="497.5" width="22" height="25" as="geometry" />
        </mxCell>
        <mxCell id="bHjSSPNl44PEYlqtmkhl-6" value="7" style="rounded=1;whiteSpace=wrap;html=1;fillColor=#007CBD;strokeColor=none;fontColor=#FFFFFF;fontStyle=1;fontSize=22;" vertex="1" parent="AH1wI-OAd1k5MtHGwiSd-1">
          <mxGeometry x="700" y="214.75" width="24" height="20.5" as="geometry" />
        </mxCell>
        <mxCell id="bHjSSPNl44PEYlqtmkhl-1" value="2" style="rounded=1;whiteSpace=wrap;html=1;fillColor=#007CBD;strokeColor=none;fontColor=#FFFFFF;fontStyle=1;fontSize=22;" vertex="1" parent="AH1wI-OAd1k5MtHGwiSd-1">
          <mxGeometry x="40" y="185" width="27" height="24.5" as="geometry" />
        </mxCell>
        <mxCell id="bHjSSPNl44PEYlqtmkhl-7" value="8" style="rounded=1;whiteSpace=wrap;html=1;fillColor=#007CBD;strokeColor=none;fontColor=#FFFFFF;fontStyle=1;fontSize=22;" vertex="1" parent="AH1wI-OAd1k5MtHGwiSd-1">
          <mxGeometry x="706" y="450" width="20" height="24" as="geometry" />
        </mxCell>
      </root>
    </mxGraphModel>
  </diagram>
</mxfile>
